<svg xmlns="http://www.w3.org/2000/svg" viewBox="0 0 15.76 10.81"><defs><style>.cls-1{fill:#333233;}</style></defs><title>inboundB</title><g id="Layer_2" data-name="Layer 2"><g id="FRAME"><g id="Group_78" data-name="Group 78"><path id="Path_12" data-name="Path 12" class="cls-1" d="M0,3.53V7.06H10.21V0H0Zm5.28-2c.24.18,1,.73,1.78,1.22,1.23.83,1.33.91,1.33,1.09s-.09.27-1.74,1.28A20.68,20.68,0,0,1,4.78,6.17a.9.9,0,0,1-.27-.07C4.4,6,4.38,6,4.38,5.21V4.38H1.71V3H4.38V2.17c0-.78,0-.89.21-1S4.85,1.16,5.28,1.49Z"/><path id="Path_13" data-name="Path 13" class="cls-1" d="M10.48,3.7V7.33H4.62L5,7.49a2.36,2.36,0,0,1,1,.93A2.19,2.19,0,0,1,6.08,9l0,.36,2,0h2l.05-.28a2,2,0,0,1,1.9-1.77A1.87,1.87,0,0,1,14,9l.09.41.53,0c.48,0,.55,0,.75-.23.39-.36.41-.46.41-1.84a8.25,8.25,0,0,0-.59-3.4c-.63-1.8-.91-2-2.45-2.11l-.9,0-.16-.41a4.63,4.63,0,0,0-.36-.7,1.44,1.44,0,0,0-.74-.57A25.93,25.93,0,0,0,10.48,3.7Zm3.42-.62a3.58,3.58,0,0,1,.64,2.22c0,.52,0,.56-.13.58a1.2,1.2,0,0,1-.52-.18,2.87,2.87,0,0,0-1.54-.41l-.67,0,0-1.06c0-.58,0-1.1,0-1.14S12,3,12.74,3s1,0,1.16.13Z"/><path id="Path_14" data-name="Path 14" class="cls-1" d="M0,7.9c0,.53,0,.58.19.75a3.27,3.27,0,0,0,1.36.6c.72.18.78.18.78-.07A2.46,2.46,0,0,1,2.84,8a1.92,1.92,0,0,1,.6-.46l.36-.18H0Z"/><path id="Path_15" data-name="Path 15" class="cls-1" d="M3.84,7.67A1.62,1.62,0,0,0,2.67,9.59a1.56,1.56,0,0,0,1.4,1.21A1.57,1.57,0,0,0,5.81,9.4a1.6,1.6,0,0,0-.16-.89,1.49,1.49,0,0,0-1-.81A1.37,1.37,0,0,0,3.84,7.67Z"/><path id="Path_16" data-name="Path 16" class="cls-1" d="M11.71,7.67a1.6,1.6,0,0,0,.43,3.14A1.57,1.57,0,0,0,13.32,8.2a1.53,1.53,0,0,0-.72-.48A1.36,1.36,0,0,0,11.71,7.67Z"/></g></g></g></svg>