<?xml version="1.0"?>
<svg xmlns="http://www.w3.org/2000/svg" xmlns:xlink="http://www.w3.org/1999/xlink" version="1.1" id="Capa_1" x="0px" y="0px" viewBox="0 0 194.56 194.56" style="enable-background:new 0 0 194.56 194.56;" xml:space="preserve" width="512px" height="512px" class=""><g><polygon style="fill:#91AB00" points="165.547,23.893 165.547,191.147 29.013,191.147 29.013,3.413 142.372,3.413 " data-original="#DDDDDD" class="" data-old_color="#DDDDDD"/><path d="M165.547,194.56H29.013c-1.884,0-3.413-1.527-3.413-3.413V3.413C25.6,1.527,27.129,0,29.013,0h113.358  c0.833,0,1.637,0.304,2.26,0.857l23.175,20.48c0.734,0.647,1.154,1.577,1.154,2.557v167.253  C168.96,193.033,167.431,194.56,165.547,194.56z M32.427,187.733h129.707V25.433L141.08,6.827H32.427V187.733z" data-original="#000000" class="active-path" style="fill:#91AB00" data-old_color="#000000"/><polygon style="fill:#91AB00" points="165.547,27.307 145.067,27.307 145.067,6.827 " data-original="#DDDDDD" class="" data-old_color="#DDDDDD"/><path d="M165.547,30.72h-20.48c-1.884,0-3.413-1.527-3.413-3.413V6.827c0-1.381,0.831-2.627,2.106-3.154  c1.275-0.532,2.741-0.241,3.721,0.741l20.48,20.48c0.976,0.976,1.268,2.444,0.741,3.721S166.927,30.72,165.547,30.72z   M148.48,23.893h8.827l-8.827-8.827V23.893z" data-original="#000000" class="active-path" style="fill:#91AB00" data-old_color="#000000"/><polygon style="fill:#FFFFFF" points="104.67,126.293 104.67,143.36 137.196,143.312 131.279,126.293 " data-original="#84D839" class="" data-old_color="#84D839"/><path d="M104.668,146.773c-0.905,0-1.772-0.36-2.412-0.997c-0.642-0.64-1.002-1.51-1.002-2.417v-17.067  c0-1.886,1.529-3.413,3.413-3.413h26.61c1.454,0,2.746,0.92,3.224,2.294l5.917,17.017c0.364,1.043,0.198,2.196-0.44,3.096  c-0.638,0.899-1.673,1.434-2.778,1.437l-32.527,0.05C104.672,146.773,104.67,146.773,104.668,146.773z M108.081,129.707v10.233  l24.315-0.036l-3.545-10.197H108.081z" data-original="#000000" class="active-path" style="fill:#91AB00" data-old_color="#000000"/><polygon style="fill:#FFFFFF" points="127.42,109.797 136.98,143.36 150.286,122.452 145.756,104.793 153.091,102.791   132.272,91.474 120.086,111.797 " data-original="#84D839" class="" data-old_color="#84D839"/><path d="M136.98,146.773c-0.164,0-0.326-0.01-0.492-0.036c-1.329-0.193-2.423-1.15-2.792-2.441l-8.636-30.321l-4.079,1.113  c-1.348,0.367-2.777-0.116-3.618-1.234c-0.841-1.109-0.923-2.62-0.207-3.816l12.187-20.323c0.94-1.567,2.953-2.106,4.557-1.244  l20.82,11.317c1.225,0.667,1.922,2.01,1.76,3.393c-0.16,1.384-1.147,2.533-2.49,2.9l-4.093,1.116l3.693,14.406  c0.234,0.913,0.08,1.884-0.427,2.679L139.86,145.19C139.226,146.186,138.136,146.773,136.98,146.773z M127.421,106.383  c1.488,0,2.854,0.98,3.282,2.476l7.477,26.257l8.431-13.247l-4.161-16.23c-0.394-1.539,0.328-3.11,1.669-3.843l-10.602-5.763  l-6.207,10.349C127.348,106.383,127.386,106.383,127.421,106.383z" data-original="#000000" class="active-path" style="fill:#91AB00" data-old_color="#000000"/><polygon style="fill:#FFFFFF" points="115.168,81.42 129.63,69.088 108.484,44.373 97.901,61.174 " data-original="#84D839" class="" data-old_color="#84D839"/><path d="M115.168,84.833c-0.09,0-0.179-0.003-0.27-0.01c-0.903-0.073-1.741-0.5-2.326-1.19L95.305,63.387  c-0.969-1.133-1.087-2.77-0.292-4.033l10.581-16.8c0.579-0.916,1.558-1.507,2.64-1.584c1.094-0.097,2.135,0.36,2.842,1.183  l21.147,24.713c0.59,0.69,0.881,1.584,0.811,2.487c-0.072,0.903-0.498,1.743-1.188,2.33l-14.462,12.334  C116.763,84.547,115.977,84.833,115.168,84.833z M102.129,60.87l13.421,15.737l9.264-7.9l-15.911-18.594L102.129,60.87z" data-original="#000000" class="active-path" style="fill:#91AB00" data-old_color="#000000"/><polygon style="fill:#FFFFFF" points="89.329,73.554 108.663,44.501 84.123,47.944 73.624,62.85 67.342,58.568 72.24,81.751   95.611,77.838 " data-original="#84D839" class="" data-old_color="#84D839"/><path d="M72.236,85.163c-1.585,0-2.999-1.106-3.337-2.707l-4.898-23.183c-0.288-1.364,0.282-2.767,1.44-3.543  c1.157-0.777,2.669-0.773,3.823,0.017l3.504,2.389l8.566-12.16c0.543-0.77,1.382-1.283,2.314-1.413l24.54-3.444  c1.338-0.21,2.649,0.423,3.366,1.563c0.715,1.137,0.696,2.591-0.048,3.707L94.042,72.632l3.495,2.382  c1.152,0.783,1.71,2.19,1.41,3.553c-0.299,1.36-1.394,2.403-2.77,2.633l-23.371,3.913C72.614,85.151,72.424,85.163,72.236,85.163z   M72.41,66.039l2.493,11.803l11.901-1.993c-1.031-1.13-1.201-2.857-0.317-4.186l15.124-22.726l-15.549,2.179l-9.648,13.699  C75.496,66.116,73.832,66.587,72.41,66.039z" data-original="#000000" class="active-path" style="fill:#91AB00" data-old_color="#000000"/><polygon style="fill:#FFFFFF" points="89.463,126.293 89.463,143.36 56.938,143.312 62.855,126.293 " data-original="#84D839" class="" data-old_color="#84D839"/><path d="M89.463,146.773c-0.002,0-0.003,0-0.005,0l-32.527-0.049c-1.104-0.003-2.14-0.536-2.778-1.437  c-0.638-0.901-0.804-2.053-0.44-3.096l5.917-17.017c0.476-1.374,1.77-2.294,3.224-2.294h26.61c1.884,0,3.413,1.527,3.413,3.413  v17.067c0,0.906-0.36,1.777-1.002,2.417C91.235,146.413,90.368,146.773,89.463,146.773z M61.735,139.904l24.315,0.036v-10.233H65.28  L61.735,139.904z" data-original="#000000" class="active-path" style="fill:#91AB00" data-old_color="#000000"/><polygon style="fill:#FFFFFF" points="66.712,109.797 57.153,143.36 43.848,122.452 48.375,104.793 41.042,102.791 61.862,91.474   74.047,111.797 " data-original="#84D839" class="" data-old_color="#84D839"/><path d="M57.151,146.773c-1.157,0-2.246-0.587-2.881-1.58l-13.305-20.907c-0.507-0.797-0.66-1.766-0.427-2.679l3.695-14.406  l-4.093-1.116c-1.343-0.367-2.33-1.517-2.49-2.9c-0.162-1.384,0.534-2.727,1.76-3.393l20.82-11.317  c1.608-0.874,3.618-0.321,4.557,1.244l12.186,20.323c0.717,1.196,0.635,2.707-0.207,3.816c-0.84,1.113-2.263,1.601-3.618,1.234  l-4.077-1.113L60.433,144.3c-0.369,1.29-1.461,2.246-2.792,2.441C57.479,146.763,57.315,146.773,57.151,146.773z M47.52,121.87  l8.431,13.247l7.479-26.257c0.437-1.533,1.833-2.49,3.391-2.476l-6.205-10.349l-10.602,5.763c1.34,0.734,2.063,2.304,1.669,3.843  L47.52,121.87z" data-original="#000000" class="active-path" style="fill:#91AB00" data-old_color="#000000"/></g> </svg>
