<!-- <?xml version="1.0"?> -->
<svg xmlns="http://www.w3.org/2000/svg" viewBox="0 0 512 512" width="512px" height="512px" class="hovered-paths"><g><g id="Solid"><path d="M264,192a95.773,95.773,0,0,0-66.464-91.349A8,8,0,0,1,192,93.04V72H144V93.04a8,8,0,0,1-5.536,7.611A95.773,95.773,0,0,0,72,192v8H264Zm-159.609-7.123-15.9-1.755a80.185,80.185,0,0,1,21.75-46.517l11.538,11.084A64.115,64.115,0,0,0,104.391,184.877Zm28.04-46.093-8.863-13.322a80.457,80.457,0,0,1,19.811-9.555l4.922,15.225A64.38,64.38,0,0,0,132.431,138.784Z" data-original="#000000" class="hovered-path active-path" data-old_color="#000000" fill="#91AB00"/><ellipse cx="296" cy="216" rx="16" ry="8" data-original="#000000" class="hovered-path active-path" data-old_color="#000000" fill="#91AB00"/><rect x="144" y="32" width="48" height="24" data-original="#000000" class="hovered-path active-path" data-old_color="#000000" fill="#91AB00"/><path d="M232,408V392H72v42a46.053,46.053,0,0,0,46,46,45.546,45.546,0,0,0,27.591-9.193,37.4,37.4,0,0,1,44.825,0,45.944,45.944,0,0,0,42.247,6.779A23.985,23.985,0,0,1,232,472V440a7.994,7.994,0,0,1,.845-3.578L239.056,424l-6.211-12.422A7.994,7.994,0,0,1,232,408Z" data-original="#000000" class="hovered-path active-path" data-old_color="#000000" fill="#91AB00"/><path d="M339.542,266.756,316.413,255.15A8,8,0,0,1,312,248V236.877a42.548,42.548,0,0,1-32,0V248a8,8,0,0,1-4.413,7.15l-23.12,11.6A7.987,7.987,0,0,0,248,273.92v36.191l7.155,14.311a8,8,0,0,1,0,7.156L248,345.889v12.222l7.155,14.311a8,8,0,0,1,0,7.156L248,393.889v12.222l7.155,14.311a8,8,0,0,1,0,7.156L248,441.889V472a7.872,7.872,0,0,0,1.635,4.821A8.025,8.025,0,0,0,256,480h80a9.029,9.029,0,0,0,1.84-.2A8.127,8.127,0,0,0,344,472V441.889L339.056,432H272V416h67.056L344,406.111V393.889L339.056,384H272V368h67.056L344,358.111V345.889L339.056,336H272V320h67.056L344,310.111V273.92A7.979,7.979,0,0,0,339.542,266.756ZM280,304H264V280h16Z" data-original="#000000" class="hovered-path active-path" data-old_color="#000000" fill="#91AB00"/><path d="M440,240v-1.2a89.153,89.153,0,0,0-1.259-14.8H376V208h58.449a86.537,86.537,0,0,0-10.861-20.366l-22.1-30.989A8,8,0,0,1,400,152V120H368v32a8,8,0,0,1-1.487,4.645l-22.08,30.96A87.462,87.462,0,0,0,328,238.8v4.263l18.708,9.387A23.889,23.889,0,0,1,360,273.92V312a7.994,7.994,0,0,1-.845,3.578L352.944,328l6.211,12.422A7.994,7.994,0,0,1,360,344v16a7.994,7.994,0,0,1-.845,3.578L352.944,376l6.211,12.422A7.994,7.994,0,0,1,360,392v16a7.994,7.994,0,0,1-.845,3.578L352.944,424l6.211,12.422A7.994,7.994,0,0,1,360,440v32a24.064,24.064,0,0,1-1.36,8h2.72a8.019,8.019,0,0,0,5.7-2.377,23.839,23.839,0,0,1,33.874,0,8.019,8.019,0,0,0,5.7,2.377H424a16.019,16.019,0,0,0,16-16V432H376V416h64V400H376V384h64V368H376V352h64a41.278,41.278,0,0,0-2.149-13.07l-2.894-8.842a56.8,56.8,0,0,1,.014-36.218l1.921-5.87H376V272h64V256H376V240Z" data-original="#000000" class="hovered-path active-path" data-old_color="#000000" fill="#91AB00"/><path d="M245.3,252.444l18.7-9.381V216H72V376H239.056l-6.211-12.422A7.994,7.994,0,0,1,232,360V344a7.994,7.994,0,0,1,.845-3.578L239.056,328l-6.211-12.422A7.994,7.994,0,0,1,232,312V273.92A23.9,23.9,0,0,1,245.3,252.444ZM104,336H88V264h16Zm0-88H88V232h16Z" data-original="#000000" class="hovered-path active-path" data-old_color="#000000" fill="#91AB00"/></g></g> </svg>
