<svg xmlns="http://www.w3.org/2000/svg" viewBox="0 0 7.75 14.1"><defs><style>.cls-1{fill:#f4f4f4;}</style></defs><title>Asset 8</title><g id="Layer_2" data-name="Layer 2"><g id="FRAME"><path class="cls-1" d="M3.92,14.1.76,12.27V8.62L3.92,6.79,7.09,8.62v3.65Zm-3-1.92,3,1.74,3-1.74V8.71L3.92,7l-3,1.74Z"/><path class="cls-1" d="M3.92,13.07a2.63,2.63,0,1,1,2.63-2.63A2.63,2.63,0,0,1,3.92,13.07Zm0-5.1a2.48,2.48,0,1,0,2.47,2.47A2.48,2.48,0,0,0,3.92,8Z"/><path class="cls-1" d="M3.84,3.84A.36.36,0,0,1,3.51,4a.39.39,0,0,1-.4-.42.4.4,0,0,1,.4-.43.38.38,0,0,1,.33.17l0,0c-.26-.31-.57-.1-.57.23s.31.53.56.23Z"/><path class="cls-1" d="M4.59,3.17V4H4.47V3.6H4.05V4H3.93V3.17h.12v.39h.42V3.17Z"/><path class="cls-1" d="M.73.73A.36.36,0,0,1,.4.9.39.39,0,0,1,0,.48.4.4,0,0,1,.4.05.36.36,0,0,1,.73.22l0,0C.45-.06.14.14.14.48S.45,1,.7.71Z"/><path class="cls-1" d="M1.48.06V.88H1.35V.49H.94V.88H.82V.06H.94V.45h.41V.06Z"/><path class="cls-1" d="M7,.68a.36.36,0,0,1-.33.17.39.39,0,0,1-.4-.42A.4.4,0,0,1,6.67,0,.38.38,0,0,1,7,.17l0,0c-.26-.31-.57-.1-.57.23S6.72,1,7,.66Z"/><path class="cls-1" d="M7.75,0V.83H7.63V.44H7.22V.83H7.09V0h.13V.4h.41V0Z"/><rect class="cls-1" x="3.87" y="4.42" width="0.11" height="2.48"/><line class="cls-1" x1="4.92" y1="3.05" x2="6.85" y2="1.12"/><rect class="cls-1" x="4.52" y="2.03" width="2.73" height="0.11" transform="translate(0.25 4.77) rotate(-45.04)"/><line class="cls-1" x1="3.07" y1="3.11" x2="1.23" y2="1.27"/><rect class="cls-1" x="2.1" y="0.89" width="0.11" height="2.6" transform="translate(-0.92 2.16) rotate(-45)"/></g></g></svg>