<svg xmlns="http://www.w3.org/2000/svg" xmlns:xlink="http://www.w3.org/1999/xlink" viewBox="0 0 210.11 83.08"><defs><style>.cls-1{isolation:isolate;}.cls-2{opacity:0.43;}.cls-3{fill:url(#linear-gradient);}.cls-4,.cls-47{opacity:0.5;}.cls-13,.cls-23,.cls-26,.cls-29,.cls-32,.cls-4,.cls-40,.cls-43,.cls-45,.cls-6,.cls-7,.cls-8,.cls-9,.cls-98{mix-blend-mode:multiply;}.cls-4{fill:url(#linear-gradient-2);}.cls-5{fill:url(#linear-gradient-3);}.cls-6,.cls-7,.cls-8,.cls-9{opacity:0.2;}.cls-6{fill:url(#linear-gradient-4);}.cls-7{fill:url(#linear-gradient-5);}.cls-8{fill:url(#linear-gradient-6);}.cls-9{fill:url(#linear-gradient-7);}.cls-10{fill:url(#linear-gradient-8);}.cls-11{fill:url(#linear-gradient-9);}.cls-12{fill:url(#linear-gradient-10);}.cls-13{opacity:0.6;fill:url(#linear-gradient-11);}.cls-14,.cls-37,.cls-39,.cls-47,.cls-54{fill:#fff;}.cls-14,.cls-15,.cls-16,.cls-17,.cls-61,.cls-62,.cls-96,.cls-97{fill-rule:evenodd;}.cls-15{fill:url(#linear-gradient-12);}.cls-16{fill:url(#linear-gradient-13);}.cls-17{fill:url(#linear-gradient-14);}.cls-18{fill:url(#linear-gradient-15);}.cls-19{fill:url(#linear-gradient-16);}.cls-20{fill:url(#linear-gradient-17);}.cls-21{fill:url(#linear-gradient-18);}.cls-22{fill:url(#linear-gradient-19);}.cls-23{fill:url(#linear-gradient-20);}.cls-24{fill:url(#linear-gradient-21);}.cls-25{fill:url(#linear-gradient-22);}.cls-27,.cls-29{fill:#c6c6c6;}.cls-28{fill:#2c2c2d;}.cls-30{fill:url(#linear-gradient-23);}.cls-31{fill:url(#linear-gradient-24);}.cls-32,.cls-39,.cls-40{opacity:0.75;}.cls-33,.cls-40{fill:#e6e7e8;}.cls-34{fill:url(#linear-gradient-25);}.cls-35{fill:url(#linear-gradient-26);}.cls-36{fill:url(#linear-gradient-27);}.cls-38{fill:url(#linear-gradient-28);}.cls-39,.cls-47,.cls-54{mix-blend-mode:overlay;}.cls-41{fill:#331b1c;}.cls-42{fill:url(#linear-gradient-29);}.cls-43{fill:url(#linear-gradient-30);}.cls-44{fill:url(#linear-gradient-31);}.cls-45{fill:url(#linear-gradient-32);}.cls-46{fill:url(#linear-gradient-33);}.cls-48{fill:url(#linear-gradient-34);}.cls-49{fill:url(#linear-gradient-35);}.cls-50{fill:url(#linear-gradient-36);}.cls-51{fill:url(#linear-gradient-37);}.cls-52{fill:url(#linear-gradient-38);}.cls-53{fill:url(#linear-gradient-39);}.cls-54{opacity:0.25;}.cls-55{fill:url(#linear-gradient-40);}.cls-56{fill:url(#linear-gradient-41);}.cls-57{fill:url(#linear-gradient-42);}.cls-58{fill:url(#linear-gradient-43);}.cls-59{fill:url(#linear-gradient-44);}.cls-60{fill:url(#linear-gradient-45);}.cls-61{fill:url(#linear-gradient-46);}.cls-62{fill:url(#linear-gradient-47);}.cls-63{fill:url(#linear-gradient-48);}.cls-64{fill:url(#linear-gradient-49);}.cls-65{fill:url(#linear-gradient-50);}.cls-66{fill:url(#linear-gradient-51);}.cls-67{fill:url(#linear-gradient-52);}.cls-68{fill:url(#linear-gradient-53);}.cls-69{fill:url(#linear-gradient-54);}.cls-70{fill:url(#linear-gradient-55);}.cls-71{fill:url(#linear-gradient-56);}.cls-72{fill:url(#linear-gradient-57);}.cls-73{fill:url(#linear-gradient-58);}.cls-74{fill:url(#linear-gradient-59);}.cls-75{fill:url(#linear-gradient-60);}.cls-76{fill:url(#linear-gradient-61);}.cls-77{fill:url(#linear-gradient-62);}.cls-78{fill:url(#linear-gradient-63);}.cls-79{fill:url(#linear-gradient-64);}.cls-80{fill:url(#linear-gradient-65);}.cls-81{fill:url(#linear-gradient-66);}.cls-82{fill:url(#linear-gradient-67);}.cls-83{fill:url(#linear-gradient-68);}.cls-84{fill:url(#linear-gradient-69);}.cls-85{fill:url(#linear-gradient-70);}.cls-86{fill:url(#linear-gradient-71);}.cls-87{fill:url(#linear-gradient-72);}.cls-88{fill:url(#linear-gradient-73);}.cls-89{fill:url(#linear-gradient-74);}.cls-90{fill:url(#linear-gradient-75);}.cls-91{fill:url(#linear-gradient-76);}.cls-92{fill:url(#linear-gradient-77);}.cls-93{fill:url(#linear-gradient-78);}.cls-94{fill:url(#linear-gradient-79);}.cls-95{fill:url(#linear-gradient-80);}.cls-96{fill:url(#linear-gradient-81);}.cls-97{fill:url(#linear-gradient-82);}.cls-98{fill:#d1d1d1;}</style><linearGradient id="linear-gradient" x1="105.05" y1="78.27" x2="105.05" y2="6.15" gradientUnits="userSpaceOnUse"><stop offset="0" stop-color="#35d9ff"/><stop offset="1" stop-color="#1682b2"/></linearGradient><linearGradient id="linear-gradient-2" x1="105.05" y1="8.77" x2="105.05" y2="6.15" gradientUnits="userSpaceOnUse"><stop offset="0" stop-color="#1477a3"/><stop offset="1" stop-color="#29b4d8"/></linearGradient><linearGradient id="linear-gradient-3" x1="85.91" y1="10.37" x2="85.91" y2="5.7" gradientUnits="userSpaceOnUse"><stop offset="0" stop-color="#29b4d8"/><stop offset="1" stop-color="#1477a3"/></linearGradient><linearGradient id="linear-gradient-4" x1="88.65" y1="10.37" x2="88.65" y2="5.7" xlink:href="#linear-gradient-3"/><linearGradient id="linear-gradient-5" x1="107.16" y1="10.37" x2="107.16" y2="5.7" xlink:href="#linear-gradient-3"/><linearGradient id="linear-gradient-6" x1="3593.95" y1="10.37" x2="3593.95" y2="5.7" gradientTransform="matrix(-1, 0, 0, 1, 3696.89, 0)" xlink:href="#linear-gradient-3"/><linearGradient id="linear-gradient-7" x1="3677.77" y1="10.37" x2="3677.77" y2="5.7" gradientTransform="matrix(-1, 0, 0, 1, 3799.23, 0)" xlink:href="#linear-gradient-3"/><linearGradient id="linear-gradient-8" x1="105.05" y1="10.37" x2="105.05" y2="5.7" xlink:href="#linear-gradient-3"/><linearGradient id="linear-gradient-9" x1="124.19" y1="10.37" x2="124.19" y2="5.7" xlink:href="#linear-gradient-3"/><linearGradient id="linear-gradient-10" x1="105.05" y1="6.15" x2="105.05" gradientUnits="userSpaceOnUse"><stop offset="0" stop-color="#23a1c9"/><stop offset="1" stop-color="#32ccf0"/></linearGradient><linearGradient id="linear-gradient-11" x1="105.05" y1="78.27" x2="105.05" y2="14.93" xlink:href="#linear-gradient-2"/><linearGradient id="linear-gradient-12" x1="112.5" y1="31.02" x2="112.5" y2="38.76" gradientUnits="userSpaceOnUse"><stop offset="0" stop-color="#fff"/><stop offset="1" stop-color="#e2e1e1"/></linearGradient><linearGradient id="linear-gradient-13" x1="97.56" y1="28.38" x2="105.1" y2="28.38" xlink:href="#linear-gradient-12"/><linearGradient id="linear-gradient-14" x1="104.52" y1="41.42" x2="96.91" y2="41.42" xlink:href="#linear-gradient-12"/><linearGradient id="linear-gradient-15" x1="-720.82" y1="706.44" x2="-690.28" y2="706.44" gradientTransform="matrix(1.09, 0.27, -0.24, 0.97, 1110.33, -458.77)" gradientUnits="userSpaceOnUse"><stop offset="0" stop-color="#8bc53f"/><stop offset="1" stop-color="#47781c"/></linearGradient><linearGradient id="linear-gradient-16" x1="-689.1" y1="718.9" x2="-703.85" y2="702.06" xlink:href="#linear-gradient-15"/><linearGradient id="linear-gradient-17" x1="1530.06" y1="-297.23" x2="1552.39" y2="-297.23" gradientTransform="matrix(0.97, -0.26, 0.26, 0.97, -1361.74, 727.9)" xlink:href="#linear-gradient-15"/><linearGradient id="linear-gradient-18" x1="1530.06" y1="-297.23" x2="1545.76" y2="-297.23" gradientTransform="matrix(0.97, -0.26, 0.26, 0.97, -1361.74, 727.9)" xlink:href="#linear-gradient-15"/><linearGradient id="linear-gradient-19" x1="131.62" y1="33.64" x2="158.16" y2="33.64" gradientUnits="userSpaceOnUse"><stop offset="0" stop-color="#267331"/><stop offset="1" stop-color="#175427"/></linearGradient><linearGradient id="linear-gradient-20" x1="136.03" y1="36.57" x2="150.16" y2="36.57" gradientUnits="userSpaceOnUse"><stop offset="0" stop-color="#d8ceed"/><stop offset="1" stop-color="#d1d1d1"/></linearGradient><linearGradient id="linear-gradient-21" x1="79.7" y1="58.82" x2="100.03" y2="79.15" gradientUnits="userSpaceOnUse"><stop offset="0" stop-color="#ffe6b0"/><stop offset="1" stop-color="#d99c5d"/></linearGradient><linearGradient id="linear-gradient-22" x1="81.12" y1="60.57" x2="98.61" y2="78.05" gradientUnits="userSpaceOnUse"><stop offset="0" stop-color="#8f6132"/><stop offset="1" stop-color="#523213"/></linearGradient><linearGradient id="linear-gradient-23" x1="86.52" y1="66.94" x2="93.21" y2="73.63" xlink:href="#linear-gradient-21"/><linearGradient id="linear-gradient-24" x1="87.42" y1="67.84" x2="92.31" y2="72.73" xlink:href="#linear-gradient-22"/><linearGradient id="linear-gradient-25" x1="65.8" y1="21.71" x2="70.18" y2="26.1" gradientUnits="userSpaceOnUse"><stop offset="0" stop-color="#f1f1f2"/><stop offset="1" stop-color="#d9e1ec"/></linearGradient><linearGradient id="linear-gradient-26" x1="51.58" y1="39.75" x2="84.4" y2="72.57" gradientUnits="userSpaceOnUse"><stop offset="0" stop-color="#fff"/><stop offset="1" stop-color="#d9e1ec"/></linearGradient><linearGradient id="linear-gradient-27" x1="65.89" y1="23.6" x2="70.09" y2="27.8" gradientUnits="userSpaceOnUse"><stop offset="0" stop-color="#d43535"/><stop offset="1" stop-color="#871b16"/></linearGradient><linearGradient id="linear-gradient-28" x1="59.53" y1="53.53" x2="76.45" y2="70.45" xlink:href="#linear-gradient-27"/><linearGradient id="linear-gradient-29" x1="178.28" y1="51.85" x2="200.16" y2="51.85" xlink:href="#linear-gradient-19"/><linearGradient id="linear-gradient-30" x1="181.3" y1="54.9" x2="194.7" y2="54.9" xlink:href="#linear-gradient-20"/><linearGradient id="linear-gradient-31" x1="11.24" y1="53.38" x2="42.8" y2="53.38" xlink:href="#linear-gradient-19"/><linearGradient id="linear-gradient-32" x1="2186.02" y1="-293.45" x2="2198.02" y2="-293.45" gradientTransform="matrix(0.93, -0.37, 0.37, 0.93, -1903.72, 1130.48)" xlink:href="#linear-gradient-20"/><linearGradient id="linear-gradient-33" x1="33.77" y1="42.88" x2="63.83" y2="72.94" gradientUnits="userSpaceOnUse"><stop offset="0" stop-color="#e6fcff"/><stop offset="1" stop-color="#77ecfe"/></linearGradient><linearGradient id="linear-gradient-34" x1="47.26" y1="27.63" x2="50.34" y2="30.71" xlink:href="#linear-gradient-33"/><linearGradient id="linear-gradient-35" x1="47.17" y1="28.62" x2="50.43" y2="31.87" xlink:href="#linear-gradient-33"/><linearGradient id="linear-gradient-36" x1="103.61" y1="69.82" x2="118.71" y2="69.82" xlink:href="#linear-gradient-27"/><linearGradient id="linear-gradient-37" x1="103.09" y1="60.4" x2="112.98" y2="70.3" gradientUnits="userSpaceOnUse"><stop offset="0" stop-color="#1c3759"/><stop offset="1" stop-color="#111927"/></linearGradient><linearGradient id="linear-gradient-38" x1="103.61" y1="72.52" x2="118.71" y2="72.52" xlink:href="#linear-gradient-26"/><linearGradient id="linear-gradient-39" x1="107.74" y1="54.86" x2="114.07" y2="61.19" gradientUnits="userSpaceOnUse"><stop offset="0" stop-color="#fff"/><stop offset="1" stop-color="#dfe3e8"/></linearGradient><linearGradient id="linear-gradient-40" x1="4249.08" y1="56.58" x2="4263.68" y2="81" gradientTransform="matrix(-1, 0, 0, 1, 4451.65, 0)" xlink:href="#linear-gradient-15"/><linearGradient id="linear-gradient-41" x1="4240.1" y1="67.24" x2="4267.41" y2="65.86" gradientTransform="matrix(-1, 0, 0, 1, 4451.65, 0)" xlink:href="#linear-gradient-15"/><linearGradient id="linear-gradient-42" x1="7.54" y1="56.58" x2="22.14" y2="81" gradientTransform="matrix(1, 0, 0, 1, 0, 0)" xlink:href="#linear-gradient-15"/><linearGradient id="linear-gradient-43" x1="-1.45" y1="67.24" x2="25.87" y2="65.86" gradientTransform="matrix(1, 0, 0, 1, 0, 0)" xlink:href="#linear-gradient-15"/><linearGradient id="linear-gradient-44" x1="37.05" y1="64.62" x2="51.73" y2="79.3" gradientUnits="userSpaceOnUse"><stop offset="0" stop-color="#78532c"/><stop offset="1" stop-color="#80572d"/></linearGradient><linearGradient id="linear-gradient-45" x1="18.88" y1="61.66" x2="39.48" y2="82.26" gradientUnits="userSpaceOnUse"><stop offset="0" stop-color="#916537"/><stop offset="1" stop-color="#875c30"/></linearGradient><linearGradient id="linear-gradient-46" x1="21.39" y1="59.16" x2="33.75" y2="71.51" gradientUnits="userSpaceOnUse"><stop offset="0" stop-color="#d3995e"/><stop offset="1" stop-color="#ad7742"/></linearGradient><linearGradient id="linear-gradient-47" x1="8089.16" y1="56.17" x2="8107.49" y2="74.5" gradientTransform="matrix(-0.3, 0, 0, 1, 2487.4, 0)" xlink:href="#linear-gradient-46"/><linearGradient id="linear-gradient-48" x1="4053.48" y1="53.43" x2="4076.69" y2="66.56" gradientTransform="matrix(1, 0, 0, -1, -3895.78, 124.56)" gradientUnits="userSpaceOnUse"><stop offset="0" stop-color="#bf8e5d"/><stop offset="1" stop-color="#ab7d4f"/></linearGradient><linearGradient id="linear-gradient-49" x1="4048.34" y1="64.64" x2="4073.27" y2="78.74" gradientTransform="matrix(1, 0, 0, -1, -3880.67, 144.25)" xlink:href="#linear-gradient-48"/><linearGradient id="linear-gradient-50" x1="4050.55" y1="80.05" x2="4072.59" y2="80.05" gradientTransform="matrix(1, 0, 0, -1, -3880.67, 160.09)" gradientUnits="userSpaceOnUse"><stop offset="0" stop-color="#d6b379"/><stop offset="1" stop-color="#bd814d"/></linearGradient><linearGradient id="linear-gradient-51" x1="4050.55" y1="78.33" x2="4072.59" y2="78.33" gradientTransform="matrix(1, 0, 0, -1, -3880.67, 156.67)" xlink:href="#linear-gradient-50"/><linearGradient id="linear-gradient-52" x1="4050.55" y1="76.62" x2="4072.59" y2="76.62" gradientTransform="matrix(1, 0, 0, -1, -3880.67, 153.24)" xlink:href="#linear-gradient-50"/><linearGradient id="linear-gradient-53" x1="4050.55" y1="74.91" x2="4072.59" y2="74.91" gradientTransform="matrix(1, 0, 0, -1, -3880.67, 149.82)" xlink:href="#linear-gradient-50"/><linearGradient id="linear-gradient-54" x1="4050.55" y1="73.2" x2="4072.59" y2="73.2" gradientTransform="matrix(1, 0, 0, -1, -3880.67, 146.39)" xlink:href="#linear-gradient-50"/><linearGradient id="linear-gradient-55" x1="4050.55" y1="71.48" x2="4072.59" y2="71.48" gradientTransform="matrix(1, 0, 0, -1, -3880.67, 142.97)" xlink:href="#linear-gradient-50"/><linearGradient id="linear-gradient-56" x1="4050.55" y1="69.77" x2="4072.59" y2="69.77" gradientTransform="matrix(1, 0, 0, -1, -3880.67, 139.54)" xlink:href="#linear-gradient-50"/><linearGradient id="linear-gradient-57" x1="4050.55" y1="68.06" x2="4072.59" y2="68.06" gradientTransform="matrix(1, 0, 0, -1, -3880.67, 136.12)" xlink:href="#linear-gradient-50"/><linearGradient id="linear-gradient-58" x1="4050.55" y1="66.35" x2="4072.59" y2="66.35" gradientTransform="matrix(1, 0, 0, -1, -3880.67, 132.69)" xlink:href="#linear-gradient-50"/><linearGradient id="linear-gradient-59" x1="4050.55" y1="64.63" x2="4072.59" y2="64.63" gradientTransform="matrix(1, 0, 0, -1, -3880.67, 129.27)" xlink:href="#linear-gradient-50"/><linearGradient id="linear-gradient-60" x1="4050.55" y1="62.92" x2="4072.59" y2="62.92" gradientTransform="matrix(1, 0, 0, -1, -3880.67, 125.84)" xlink:href="#linear-gradient-50"/><linearGradient id="linear-gradient-61" x1="4043.62" y1="72.12" x2="4065.67" y2="72.12" gradientTransform="matrix(1, 0, 0, -1, -3866.82, 144.25)" gradientUnits="userSpaceOnUse"><stop offset="0" stop-color="#e0aa72"/><stop offset="1" stop-color="#cc9863"/></linearGradient><linearGradient id="linear-gradient-62" x1="4043.62" y1="80.05" x2="4065.67" y2="80.05" gradientTransform="matrix(1, 0, 0, -1, -3866.82, 160.09)" gradientUnits="userSpaceOnUse"><stop offset="0" stop-color="#f2cf8d"/><stop offset="1" stop-color="#d99c5d"/></linearGradient><linearGradient id="linear-gradient-63" x1="4043.62" y1="78.33" x2="4065.67" y2="78.33" gradientTransform="matrix(1, 0, 0, -1, -3866.82, 156.67)" xlink:href="#linear-gradient-62"/><linearGradient id="linear-gradient-64" x1="4043.62" y1="76.62" x2="4065.67" y2="76.62" gradientTransform="matrix(1, 0, 0, -1, -3866.82, 153.24)" xlink:href="#linear-gradient-62"/><linearGradient id="linear-gradient-65" x1="4043.62" y1="74.91" x2="4065.67" y2="74.91" gradientTransform="matrix(1, 0, 0, -1, -3866.82, 149.82)" xlink:href="#linear-gradient-62"/><linearGradient id="linear-gradient-66" x1="4043.62" y1="73.2" x2="4065.67" y2="73.2" gradientTransform="matrix(1, 0, 0, -1, -3866.82, 146.39)" xlink:href="#linear-gradient-62"/><linearGradient id="linear-gradient-67" x1="4043.62" y1="71.48" x2="4065.67" y2="71.48" gradientTransform="matrix(1, 0, 0, -1, -3866.82, 142.97)" xlink:href="#linear-gradient-62"/><linearGradient id="linear-gradient-68" x1="4043.62" y1="69.77" x2="4065.67" y2="69.77" gradientTransform="matrix(1, 0, 0, -1, -3866.82, 139.54)" xlink:href="#linear-gradient-62"/><linearGradient id="linear-gradient-69" x1="4043.62" y1="68.06" x2="4065.67" y2="68.06" gradientTransform="matrix(1, 0, 0, -1, -3866.82, 136.12)" xlink:href="#linear-gradient-62"/><linearGradient id="linear-gradient-70" x1="4043.62" y1="66.35" x2="4065.67" y2="66.35" gradientTransform="matrix(1, 0, 0, -1, -3866.82, 132.69)" xlink:href="#linear-gradient-62"/><linearGradient id="linear-gradient-71" x1="4043.62" y1="64.63" x2="4065.67" y2="64.63" gradientTransform="matrix(1, 0, 0, -1, -3866.82, 129.27)" xlink:href="#linear-gradient-62"/><linearGradient id="linear-gradient-72" x1="4043.62" y1="62.92" x2="4065.67" y2="62.92" gradientTransform="matrix(1, 0, 0, -1, -3866.82, 125.84)" xlink:href="#linear-gradient-62"/><linearGradient id="linear-gradient-73" x1="4043.85" y1="60.12" x2="4065.68" y2="60.12" gradientTransform="matrix(-1, 0, 0, 1, 4242.47, 0)" xlink:href="#linear-gradient-62"/><linearGradient id="linear-gradient-74" x1="4044.44" y1="58.19" x2="4065.67" y2="58.19" gradientTransform="matrix(-1, 0, 0, 1, 4242.47, 0)" xlink:href="#linear-gradient-62"/><linearGradient id="linear-gradient-75" x1="145.96" y1="58.75" x2="166.52" y2="58.75" gradientUnits="userSpaceOnUse"><stop offset="0" stop-color="#b2760c"/><stop offset="1" stop-color="#d89826"/></linearGradient><linearGradient id="linear-gradient-76" x1="3687.14" y1="35.61" x2="3673.63" y2="49.13" gradientTransform="matrix(-1, 0, 0, 1, 3842.21, 0)" gradientUnits="userSpaceOnUse"><stop offset="0" stop-color="#fab53e"/><stop offset="1" stop-color="#b2760c"/></linearGradient><linearGradient id="linear-gradient-77" x1="3674.68" y1="37.5" x2="3690.66" y2="37.5" gradientTransform="matrix(1, 0, 0, -1, -3523.13, 75)" gradientUnits="userSpaceOnUse"><stop offset="0" stop-color="#b2760c"/><stop offset="1" stop-color="#dd9b2a"/></linearGradient><linearGradient id="linear-gradient-78" x1="3691.11" y1="50.62" x2="3665.1" y2="76.63" gradientTransform="matrix(1, 0, 0, -1, -3513.99, 127.24)" xlink:href="#linear-gradient-76"/><linearGradient id="linear-gradient-79" x1="145.96" y1="63.62" x2="156.28" y2="63.62" gradientUnits="userSpaceOnUse"><stop offset="0" stop-color="#d9e1ec"/><stop offset="1" stop-color="#e6e7e8"/></linearGradient><linearGradient id="linear-gradient-80" x1="3684.96" y1="56.76" x2="3671.24" y2="70.48" gradientTransform="matrix(1, 0, 0, -1, -3513.99, 127.24)" xlink:href="#linear-gradient-26"/><linearGradient id="linear-gradient-81" x1="-485.79" y1="308.05" x2="-462.6" y2="331.25" gradientTransform="translate(645.18 -201.88) rotate(6.47)" gradientUnits="userSpaceOnUse"><stop offset="0" stop-color="#d1d1d1"/><stop offset="1" stop-color="#b3b3b3"/></linearGradient><linearGradient id="linear-gradient-82" x1="120.07" y1="55.59" x2="145.96" y2="81.48" xlink:href="#linear-gradient-39"/></defs><title>grocery</title><g class="cls-1"><g id="Layer_2" data-name="Layer 2"><g id="FRAME"><g class="cls-2"><path class="cls-3" d="M76.57,6.15l8.1,70.33a2.05,2.05,0,0,0,2,1.79h6.6a.81.81,0,0,0,.81-.81V76.05H116v1.41a.81.81,0,0,0,.81.81h6.61a2,2,0,0,0,2-1.79l8.11-70.33Z"/><polygon class="cls-4" points="133.54 6.15 76.57 6.15 76.89 8.77 133.22 8.77 133.54 6.15"/><rect class="cls-5" x="84.54" y="5.7" width="2.73" height="4.67"/><polygon class="cls-6" points="87.28 10.37 87.28 5.7 90.01 5.7 87.28 10.37"/><polygon class="cls-7" points="106.42 10.37 106.42 5.7 107.9 5.7 106.42 10.37"/><polygon class="cls-8" points="103.69 10.37 103.69 5.7 102.2 5.7 103.69 10.37"/><polygon class="cls-9" points="122.83 10.37 122.83 5.7 120.09 5.7 122.83 10.37"/><rect class="cls-10" x="103.69" y="5.7" width="2.73" height="4.67"/><rect class="cls-11" x="122.83" y="5.7" width="2.73" height="4.67"/><path class="cls-12" d="M136.06,0H74a2,2,0,0,0-2,2.26l.43,3.89h65.21l.43-3.89A2,2,0,0,0,136.06,0Z"/><path class="cls-13" d="M123.84,14.93H86.27a2.52,2.52,0,0,0-2.51,2.83l6.9,60.51H93.3a.81.81,0,0,0,.81-.81V76.05H116v1.41a.81.81,0,0,0,.81.81h2.65l6.89-60.51A2.51,2.51,0,0,0,123.84,14.93Z"/><path class="cls-14" d="M111.57,38.76h-3.23V37.13l-2.65,4.29,2.65,4.29V44.07h3.12a1.86,1.86,0,0,0,1.59-.91l.53-.92,2.53-4.4Z"/><path class="cls-15" d="M116.11,36l-2.88-5-4.6,2.65,2.94,5.09h3A1.84,1.84,0,0,0,116.11,36Z"/><path class="cls-14" d="M111.33,27.71,109.77,25a1.83,1.83,0,0,0-1.59-.92h-6.13l3,3.46,1.62,2.81-1.42.83,5,.15,2.39-4.44Z"/><path class="cls-16" d="M102.16,32.67l2.94-5.11L103.64,25a1.84,1.84,0,0,0-1.59-.92h0a1.83,1.83,0,0,0-1.59.92l-2.88,5Z"/><path class="cls-14" d="M101.68,36.8l-2.39-4.44-5,.15,1.4.8L94.09,36a1.86,1.86,0,0,0,0,1.83l.53.92,2.54,4.4,1.48-4.4L100.25,36Z"/><path class="cls-17" d="M104.52,38.76H98.64l-1.48,2.56a1.83,1.83,0,0,0,1.59,2.75h5.77Z"/></g><g class="cls-2"><path class="cls-18" d="M168.38,27.65a55.33,55.33,0,0,0-9.65,8.27,23.31,23.31,0,0,1,2.71,3.31A9,9,0,0,0,157,37.8a69.43,69.43,0,0,0-7,9.75l21.38,11.71c.64-2.26,3.41-10.08,4.8-11.81h0c-2.41-1.76-5-3.9-7.53-5a58.79,58.79,0,0,1,7.15,2.11,8.42,8.42,0,0,1,1.86,1c1.19-1.6,2.34-3.24,3.42-4.93q.82-1.29,1.59-2.61a32.85,32.85,0,0,0-5.22-4.11,16,16,0,0,1,6.24,2.31,80.8,80.8,0,0,0,3.86-7.94c1.65-3.91,2.55-8.68,5.51-11.68A88.79,88.79,0,0,0,168.38,27.65Z"/><path class="cls-19" d="M158.39,52.82l13,6.44c.64-2.26,3.41-10.08,4.8-11.81h0c-2.41-1.76-5-3.9-7.53-5a58.79,58.79,0,0,1,7.15,2.11,8.42,8.42,0,0,1,1.86,1c1.19-1.6,2.34-3.24,3.42-4.93q.82-1.29,1.59-2.61a32.85,32.85,0,0,0-5.22-4.11,16,16,0,0,1,6.24,2.31,80.8,80.8,0,0,0,3.86-7.94c1.65-3.91,2.55-8.68,5.51-11.68C183.18,22,164,38.68,158.39,52.82Z"/></g><g class="cls-2"><path class="cls-20" d="M62.41,48.39a75.83,75.83,0,0,0-3.83-13.3,9.42,9.42,0,0,0-4.56.44A29.31,29.31,0,0,1,57.63,33a43.11,43.11,0,0,0-6.21-9.52A71.6,71.6,0,0,0,32.17,8.41c1.74,3.35,1,7.93,1.23,11.86a69.36,69.36,0,0,0,1,8.08,17.13,17.13,0,0,1,6.55-.91,37.43,37.43,0,0,0-6.21,2.77c.19.91.39,1.82.61,2.72.44,1.77,1,3.51,1.54,5.22a9.3,9.3,0,0,1,2-.54,63.6,63.6,0,0,1,7.33-.54c-2.7.53-5.82,2-8.64,3.14h0c9.5,23.45,23.88,29.38,23.88,29.38C61.43,68.79,64.46,57.53,62.41,48.39Z"/><path class="cls-21" d="M61.2,69.47l.27.12S57,52.4,54.16,45.42c-5.47-13.44-14.1-29.56-22-37,1.74,3.35,1,7.93,1.23,11.86a69.36,69.36,0,0,0,1,8.08,17.13,17.13,0,0,1,6.55-.91,37.43,37.43,0,0,0-6.21,2.77c.19.91.39,1.82.61,2.72.44,1.77,1,3.51,1.54,5.22a9.3,9.3,0,0,1,2-.54,63.6,63.6,0,0,1,7.33-.54c-2.7.53-5.82,2-8.64,3.14h0C46.34,61.81,59.22,68.54,61.2,69.47Z"/></g><g class="cls-2"><path class="cls-22" d="M153.9,15.1a5.05,5.05,0,0,0-5,2.19c-1,1.44-1.51,3.43-3.33,4.1-2.41.88-5.38-1.27-6.53,2.1-.52,1.54.2,3.93-.72,5.22a5.5,5.5,0,0,1-1.7,1.2,4.48,4.48,0,0,0-1.8,4.75c1.06,4.18,1.26,8.34-.31,11.85-1.15,2.57-2.05,3.66-2.9,4.16,3.48,0,6,1.57,9.47,1.57-1.1-2.34-1.31-6.9-.54-8,2.49-3.62,6.4-1.9,9.87-2.37,2.45-.33,5.64-2.51,4.61-5.28s-3.6-4.92-1-7.75c1.23-1.32,2.76-2.21,3.47-3.94a9.73,9.73,0,0,0,.62-3.85C158.06,18.36,156.77,15.61,153.9,15.1Z"/><path class="cls-23" d="M149.42,29.77a.45.45,0,0,0,.33-.54.43.43,0,0,0-.53-.33l-3.07.69A43.82,43.82,0,0,1,150,24.73a.45.45,0,1,0-.65-.61A45.54,45.54,0,0,0,145.5,29l-.22-3.27a.45.45,0,0,0-.89.06l.29,4.41a63.29,63.29,0,0,0-3.4,5.81l-.7-4.82a.45.45,0,0,0-.51-.37.44.44,0,0,0-.38.51l.89,6.07A73.11,73.11,0,0,0,136,49a.4.4,0,0,0,0,.11h.9a71.35,71.35,0,0,1,4.41-11.32l7.33-1a.45.45,0,0,0,.39-.5.46.46,0,0,0-.51-.39l-6.73.92a61.34,61.34,0,0,1,3.58-6.19Z"/></g><g class="cls-2"><polygon class="cls-24" points="97.55 81.64 100.14 58.93 95.56 58.93 89.86 58.93 84.17 58.93 79.59 58.93 82.18 81.64 97.55 81.64"/><polygon class="cls-25" points="99.81 61.78 96.64 61.78 89.86 61.78 83.09 61.78 79.92 61.78 81.86 78.79 83.09 78.79 89.86 78.79 96.64 78.79 97.87 78.79 99.81 61.78"/><g class="cls-26"><polygon class="cls-27" points="90.28 78.79 90.75 78.79 90.91 61.78 90.43 61.78 90.28 78.79"/><polygon class="cls-27" points="89.3 61.78 88.82 61.78 88.98 78.79 89.45 78.79 89.3 61.78"/><polygon class="cls-27" points="92.49 61.78 92.02 61.78 91.56 78.79 92.04 78.79 92.49 61.78"/><polygon class="cls-27" points="87.71 61.78 87.24 61.78 87.69 78.79 88.17 78.79 87.71 61.78"/><polygon class="cls-27" points="94.08 61.78 93.61 61.78 92.85 78.79 93.32 78.79 94.08 61.78"/><polygon class="cls-27" points="86.13 61.78 85.65 61.78 86.41 78.79 86.88 78.79 86.13 61.78"/><polygon class="cls-27" points="95.67 61.78 95.19 61.78 94.13 78.79 94.61 78.79 95.67 61.78"/><polygon class="cls-27" points="85.12 78.79 85.6 78.79 84.54 61.78 84.06 61.78 85.12 78.79"/><polygon class="cls-27" points="95.42 78.79 95.89 78.79 97.25 61.78 96.78 61.78 95.42 78.79"/><polygon class="cls-27" points="82.47 61.78 83.84 78.79 84.31 78.79 82.95 61.78 82.47 61.78"/><polygon class="cls-27" points="96.7 78.79 97.18 78.79 98.84 61.78 98.36 61.78 96.7 78.79"/><polygon class="cls-27" points="82.55 78.79 83.03 78.79 81.37 61.78 80.89 61.78 82.55 78.79"/></g><path class="cls-28" d="M80,56.31H99.74l-.29-2.5A1.45,1.45,0,0,0,98,52.53H81.72a1.45,1.45,0,0,0-1.44,1.28Z"/><polygon class="cls-29" points="80.08 55.51 99.65 55.51 99.74 56.31 79.99 56.31 80.08 55.51"/><path class="cls-28" d="M100.85,56.76h0a.56.56,0,0,0-.53-.45H79.41a.56.56,0,0,0-.53.45h0a.13.13,0,0,1,0,.06,7.37,7.37,0,0,1-.27,1.94l0,.17h22.63l-.05-.17a7.37,7.37,0,0,1-.27-1.94A.13.13,0,0,1,100.85,56.76Z"/><path class="cls-30" d="M89.87,75a4.74,4.74,0,1,1,4.73-4.74A4.74,4.74,0,0,1,89.87,75Z"/><path class="cls-31" d="M91.83,68.44c1.3,1.39,1.49,3.35.4,4.36s-3,.72-4.33-.67-1.49-3.35-.4-4.37S90.52,67.05,91.83,68.44Z"/><path class="cls-29" d="M87.85,68l0,.07.11.17a2.62,2.62,0,0,0,.44.51A18.78,18.78,0,0,0,90.08,70c.31.23.62.47.9.72a4.69,4.69,0,0,1,.71.8,1.87,1.87,0,0,1,.2.4,1.21,1.21,0,0,1,.08.33,1,1,0,0,1,0,.29l0-.06a.56.56,0,0,0-.09-.17,1.77,1.77,0,0,0-.19-.23l-.29-.24c-.44-.33-1.1-.71-1.74-1.18a6.73,6.73,0,0,1-.91-.77,3.47,3.47,0,0,1-.63-.87,1.87,1.87,0,0,1-.22-.74.62.62,0,0,1,0-.21Z"/><g class="cls-32"><polygon class="cls-33" points="96.43 58.93 94.77 81.64 97.55 81.64 100.14 58.93 96.43 58.93"/></g><g class="cls-32"><path class="cls-33" d="M101.13,58.76a7.37,7.37,0,0,1-.27-1.94.13.13,0,0,1,0-.06h0a.56.56,0,0,0-.53-.45h-.58l-.29-2.5A1.45,1.45,0,0,0,98,52.53H95.25c.48,0,.89.55.94,1.28l.2,2.5h.38c.16,0,.32.2.35.45h0v.06a13.09,13.09,0,0,0,.18,1.94l0,.17h3.84Z"/></g></g><g class="cls-2"><rect class="cls-34" x="64.85" y="22.65" width="6.28" height="2.5"/><path class="cls-35" d="M75,48.16a6.56,6.56,0,0,0,2.25-4.94,17,17,0,0,0-2.56-9l-3.72-6v-2H65v2l-3.72,6a17,17,0,0,0-2.56,9A6.56,6.56,0,0,0,61,48.16a5.78,5.78,0,0,0-2.25,4.58V78.39A3.26,3.26,0,0,0,62,81.64h0a3.26,3.26,0,0,0,2.27-.92l.74-.71.55.59a3.24,3.24,0,0,0,4.76,0l.56-.59.73.71a3.26,3.26,0,0,0,2.27.92h0a3.26,3.26,0,0,0,3.25-3.25V52.74A5.78,5.78,0,0,0,75,48.16Z"/><rect class="cls-36" x="64.4" y="25.09" width="7.17" height="1.22"/><rect class="cls-37" x="58.75" y="53.05" width="18.48" height="17.88"/><rect class="cls-38" x="58.75" y="54.31" width="18.48" height="15.37"/><path class="cls-39" d="M65,26.31v2l-3.72,6a17,17,0,0,0-2.56,9A6.56,6.56,0,0,0,61,48.16a5.78,5.78,0,0,0-2.25,4.58V78.39A3.26,3.26,0,0,0,62,81.64h0a3.3,3.3,0,0,0,.89-.13,3.26,3.26,0,0,1-1.74-3.12V52.74a6.71,6.71,0,0,1,1.65-4.58,7.76,7.76,0,0,1-1.65-4.94,21.69,21.69,0,0,1,1.88-9l2.73-6v-2Z"/><path class="cls-40" d="M75,48.16a6.56,6.56,0,0,0,2.25-4.94,17,17,0,0,0-2.56-9l-3.72-6v-2h-1.5v2l1.83,6a31.19,31.19,0,0,1,1.25,9,10.49,10.49,0,0,1-1.1,4.94,8.86,8.86,0,0,1,1.1,4.58V78.39a5,5,0,0,1-.61,2.55,3,3,0,0,0,1.12.57,3.3,3.3,0,0,0,.89.13h0a3.26,3.26,0,0,0,3.25-3.25V52.74A5.78,5.78,0,0,0,75,48.16Z"/><path class="cls-41" d="M58.75,77.2v1.19A3.26,3.26,0,0,0,62,81.64h0a3.26,3.26,0,0,0,2.27-.92l.74-.71.55.59a3.24,3.24,0,0,0,4.76,0l.56-.59.73.71a3.26,3.26,0,0,0,2.27.92h0a3.26,3.26,0,0,0,3.25-3.25V77.2Z"/></g><g class="cls-2"><path class="cls-42" d="M198.17,47.91c1.3-2.19,2.42-5.42,1.82-8-.45-1.92-2-4.54-4.34-4-1.68.39-2.56,2.27-4.33,2.52-1.61.22-2.69-1.53-4.21-1.57s-2.55,1.61-3,2.76c-1,2.77-.09,6.53-1.73,9-.89,1.35-2.41,1.39-3.31,2.72-1.5,2.19-.68,5,.28,7.18,1.07,2.47,2.17,5.16,1.84,7.91,0,.13-.17,1.34-.29,1.34l5.06,0a3.94,3.94,0,0,1,2.06-4.32c2-.8,4.09.48,5.92-1,3.2-2.61-.35-6.48.78-9.66C195.44,50.92,197.19,49.58,198.17,47.91Z"/><path class="cls-43" d="M194.41,45.38a.39.39,0,1,0-.2-.75l-1.73.46c.66-.84,1.36-1.67,2.11-2.45a.39.39,0,0,0-.56-.54c-.77.8-1.49,1.65-2.17,2.51V43a.38.38,0,0,0-.39-.39.39.39,0,0,0-.39.39v2.67A41.3,41.3,0,0,0,187.82,51l-1.06-6.5a.4.4,0,0,0-.45-.32.39.39,0,0,0-.32.45l1.23,7.56a54.93,54.93,0,0,0-2.67,6.62L182,53.4a.38.38,0,0,0-.52-.19.4.4,0,0,0-.19.52l2.87,6.15a53,53,0,0,0-1.85,7.89v0h.78a55.11,55.11,0,0,1,1.8-7.66l6.63-1.51a.39.39,0,0,0,.29-.47.38.38,0,0,0-.46-.29l-6.19,1.41a53.85,53.85,0,0,1,2.72-6.78L193,50.92a.39.39,0,0,0-.24-.75l-4.36,1.37a40.85,40.85,0,0,1,3.32-5.44Z"/></g><g class="cls-2"><path class="cls-44" d="M41.4,60.35a7.94,7.94,0,0,0-2.5-4.54c-1-.86-2.18-1.12-2.71-2.51-.85-2.22.1-4.95-1.44-6.91-1.21-1.54-3.35-2.21-5.21-2.49-3.5-.54-6.56-.83-8.75-4-.87-1.26-1.22-2.69-2.41-3.74-1.56-1.36-5.34-1.75-6.67.13-1.89,2.65,2.41,5.16,4,6.48s3,3.58,2.09,5.48c-.6,1.23-1.91,1.9-1.87,3.38.12,5.17,7.47,8.53,11.37,10.5,4.49,2.26,9.67,4.93,12.18,9.56L42.8,70.4a4.8,4.8,0,0,1-1.66-4.18C41.2,64.23,41.8,62.34,41.4,60.35Z"/><path class="cls-45" d="M41.48,70.38c0-.08-3.21-5.8-7.28-11.59l.08-5.91a.43.43,0,0,0-.85,0l-.06,4.77c-1.31-1.82-2.69-3.6-4.08-5.18-.56-.64-1.1-1.24-1.62-1.82L27,46.29a.42.42,0,0,0-.48-.35.44.44,0,0,0-.35.49l.5,3c-1.58-1.73-3-3.22-4.09-4.41a41.65,41.65,0,0,1-3.19-3.58.43.43,0,0,0-.59-.12.42.42,0,0,0-.12.58,39.7,39.7,0,0,0,3.29,3.7c1.16,1.24,2.63,2.8,4.29,4.64l-5-.55a.42.42,0,0,0-.46.38.41.41,0,0,0,.37.46l5.94.65L28.66,53c1.42,1.62,2.84,3.46,4.18,5.33l-5.69-1a.41.41,0,0,0-.48.34.42.42,0,0,0,.34.49l6.52,1.12c4,5.74,7.17,11.41,7.21,11.49s.17.35.17.35l.82-.32Z"/></g><g class="cls-2"><path class="cls-46" d="M53.73,41.67l-1.4-4.4a23.27,23.27,0,0,1-1.09-7H46.36a23.27,23.27,0,0,1-1.09,7l-1.4,4.4A66.08,66.08,0,0,0,41,60.86V79.39c0,1.24,1.3,2.25,2.9,2.25h9.82c1.6,0,2.9-1,2.9-2.25V60.86A66.08,66.08,0,0,0,53.73,41.67Z"/><path class="cls-47" d="M45.27,37.27l-1.4,4.4A66.08,66.08,0,0,0,41,60.86V79.39c0,1.24,1.3,2.25,2.9,2.25h1.65a2.11,2.11,0,0,1-1.93-2.25V60.86a97.28,97.28,0,0,1,1.92-19.19l.92-4.4a33.43,33.43,0,0,0,.73-7h-.82A23.27,23.27,0,0,1,45.27,37.27Z"/><path class="cls-40" d="M53.73,41.67l-1.4-4.4a23.27,23.27,0,0,1-1.09-7H49.62a67.26,67.26,0,0,0,.36,7l.47,4.4a187.65,187.65,0,0,1,1,19.19V79.39c0,1.24-.44,2.25-1,2.25h3.26c1.6,0,2.9-1,2.9-2.25V60.86A66.08,66.08,0,0,0,53.73,41.67Z"/><rect class="cls-48" x="46.29" y="28.6" width="5.03" height="1.15"/><path class="cls-49" d="M51.29,29.68h-5a.56.56,0,0,0,0,1.12h5a.56.56,0,0,0,0-1.12Z"/></g><g class="cls-2"><path class="cls-50" d="M116.33,58.93V58H105.48v1a1.09,1.09,0,0,1-.4.84l-.32.26a3,3,0,0,0-1.15,2.38V79.76a1.88,1.88,0,0,0,1.88,1.88h11.34a1.88,1.88,0,0,0,1.88-1.88v-17a3.08,3.08,0,0,0-1.43-2.6l-.45-.28A1.07,1.07,0,0,1,116.33,58.93Z"/><path class="cls-51" d="M118.71,64.39V62.72a3.08,3.08,0,0,0-1.43-2.6l-.45-.28a1.07,1.07,0,0,1-.5-.91V58H105.48v1a1.09,1.09,0,0,1-.4.84l-.32.26a3,3,0,0,0-1.15,2.38V76.55C106.78,70.4,115.54,69,118.71,64.39Z"/><path class="cls-52" d="M103.61,76.55v3.21a1.86,1.86,0,0,0,.23.88c3.34-5.81,11.78-7.29,14.87-11.75v-4.5C115.54,69,106.78,70.4,103.61,76.55Z"/><path class="cls-53" d="M116.22,58.74H105.59a.72.72,0,0,1-.72-.72h0a.71.71,0,0,1,.72-.71h10.63a.71.71,0,0,1,.72.71h0A.72.72,0,0,1,116.22,58.74Z"/><path class="cls-40" d="M117.28,60.12l-.45-.28a1.07,1.07,0,0,1-.5-.91V58h-2.17v.92a1.38,1.38,0,0,0,.29.91l.26.28a4,4,0,0,1,.83,2.6v17c0,1-.49,1.88-1.09,1.88h2.38a1.88,1.88,0,0,0,1.88-1.88v-17A3.08,3.08,0,0,0,117.28,60.12Z"/><path class="cls-54" d="M106.05,79.76V62.49a3.75,3.75,0,0,1,.77-2.38l.22-.26a1.34,1.34,0,0,0,.27-.84V58h-1.83v1a1.09,1.09,0,0,1-.4.84l-.32.26a3,3,0,0,0-1.15,2.38V79.76a1.88,1.88,0,0,0,1.88,1.88h1.83C106.62,81.64,106.05,80.8,106.05,79.76Z"/></g><g class="cls-2"><path class="cls-55" d="M204,71.07c-2,.11-4,.28-5.95.32,1.55.83,3.69,1.15,5.35,1.91l.06,0c-.34,1.37-.7,2.74-1.11,4.1s-.83,2.55-1.33,3.78c-1.16-.42-1.87-.13-2,.43h-9.43l-11.8-5.8a35.11,35.11,0,0,1,3.32-3.2l2.36-2a33.14,33.14,0,0,1,7.82.78c-.73-.43-1.71-.63-2.49-1-.95-.47-2.16-1-3.29-1.45q3.83-3.11,7.86-6.05a13.23,13.23,0,0,1,4,2.61c-.8-1.09-.92-3-1.86-4.17.83-.59,1.66-1.17,2.5-1.74,4-2.73,8.31-4.91,12-7.94-1.13,3.42-2.82,6.77-3.83,10.24C205.39,64.94,204.73,68,204,71.07Z"/><path class="cls-56" d="M204,71.07c-2,.11-4,.28-5.95.32,1.55.83,3.69,1.15,5.35,1.91l.06,0c-.34,1.37-.7,2.74-1.11,4.1a37.66,37.66,0,0,1-1.44,4.21h-11.3l-1-.51a66.89,66.89,0,0,0,5-7C196.74,68.9,206,57,210.11,51.66c-1.13,3.42-2.82,6.77-3.83,10.24C205.39,64.94,204.73,68,204,71.07Z"/><path class="cls-57" d="M6.08,71.07c2,.11,4,.28,5.94.32-1.54.83-3.69,1.15-5.34,1.91l-.06,0c.33,1.37.69,2.74,1.11,4.1S8.56,80,9.05,81.21c1.17-.42,1.88-.13,2,.43h9.43l11.79-5.8A35.05,35.05,0,0,0,29,72.64c-.78-.67-1.57-1.34-2.37-2a33.06,33.06,0,0,0-7.81.78c.72-.43,1.7-.63,2.49-1,.95-.47,2.15-1,3.28-1.45-2.54-2.07-5.17-4.09-7.85-6.05a13.28,13.28,0,0,0-4,2.61c.8-1.09.93-3,1.86-4.17-.83-.59-1.66-1.17-2.5-1.74-4-2.73-8.3-4.91-12-7.94,1.12,3.42,2.82,6.77,3.83,10.24C4.72,64.94,5.37,68,6.08,71.07Z"/><path class="cls-58" d="M6.08,71.07c2,.11,4,.28,5.94.32-1.54.83-3.69,1.15-5.34,1.91l-.06,0c.33,1.37.69,2.74,1.11,4.1a37.66,37.66,0,0,0,1.44,4.21h11.3l1-.51a67,67,0,0,1-5-7C13.37,68.9,4.1,57,0,51.66c1.12,3.42,2.82,6.77,3.83,10.24C4.72,64.94,5.37,68,6.08,71.07Z"/></g><g class="cls-2"><rect class="cls-59" x="39.39" y="62.28" width="10.01" height="19.36"/><rect class="cls-60" x="18.27" y="62.28" width="21.83" height="19.36"/><polygon class="cls-61" points="36.87 68.38 15.04 68.38 18.27 62.28 40.09 62.28 36.87 68.38"/><polygon class="cls-62" points="42.71 68.38 53.01 68.38 50.43 62.28 40.13 62.28 42.71 68.38"/></g><g class="cls-2"><rect class="cls-63" x="169.88" y="61.12" width="6.93" height="2.32" transform="translate(346.69 124.56) rotate(180)"/><rect class="cls-64" x="169.88" y="62.61" width="22.05" height="19.03" transform="translate(361.8 144.25) rotate(180)"/><rect class="cls-65" x="169.88" y="79.53" width="22.05" height="1.03" transform="translate(361.8 160.09) rotate(180)"/><rect class="cls-66" x="169.88" y="77.82" width="22.05" height="1.03" transform="translate(361.8 156.67) rotate(180)"/><rect class="cls-67" x="169.88" y="76.1" width="22.05" height="1.03" transform="translate(361.8 153.24) rotate(180)"/><rect class="cls-68" x="169.88" y="74.39" width="22.05" height="1.03" transform="translate(361.8 149.82) rotate(180)"/><rect class="cls-69" x="169.88" y="72.68" width="22.05" height="1.03" transform="translate(361.8 146.39) rotate(180)"/><rect class="cls-70" x="169.88" y="70.97" width="22.05" height="1.03" transform="translate(361.8 142.97) rotate(180)"/><rect class="cls-71" x="169.88" y="69.25" width="22.05" height="1.03" transform="translate(361.8 139.54) rotate(180)"/><rect class="cls-72" x="169.88" y="67.54" width="22.05" height="1.03" transform="translate(361.8 136.12) rotate(180)"/><rect class="cls-73" x="169.88" y="65.83" width="22.05" height="1.03" transform="translate(361.8 132.69) rotate(180)"/><rect class="cls-74" x="169.88" y="64.12" width="22.05" height="1.03" transform="translate(361.8 129.27) rotate(180)"/><rect class="cls-75" x="169.88" y="62.41" width="22.05" height="1.03" transform="translate(361.8 125.84) rotate(180)"/><rect class="cls-76" x="176.8" y="62.61" width="22.05" height="19.03" transform="translate(375.65 144.25) rotate(180)"/><rect class="cls-77" x="176.8" y="79.53" width="22.05" height="1.03" transform="translate(375.65 160.09) rotate(180)"/><rect class="cls-78" x="176.8" y="77.82" width="22.05" height="1.03" transform="translate(375.65 156.67) rotate(180)"/><rect class="cls-79" x="176.8" y="76.1" width="22.05" height="1.03" transform="translate(375.65 153.24) rotate(180)"/><rect class="cls-80" x="176.8" y="74.39" width="22.05" height="1.03" transform="translate(375.65 149.82) rotate(180)"/><rect class="cls-81" x="176.8" y="72.68" width="22.05" height="1.03" transform="translate(375.65 146.39) rotate(180)"/><rect class="cls-82" x="176.8" y="70.97" width="22.05" height="1.03" transform="translate(375.65 142.97) rotate(180)"/><rect class="cls-83" x="176.8" y="69.25" width="22.05" height="1.03" transform="translate(375.65 139.54) rotate(180)"/><rect class="cls-84" x="176.8" y="67.54" width="22.05" height="1.03" transform="translate(375.65 136.12) rotate(180)"/><rect class="cls-85" x="176.8" y="65.83" width="22.05" height="1.03" transform="translate(375.65 132.69) rotate(180)"/><rect class="cls-86" x="176.8" y="64.12" width="22.05" height="1.03" transform="translate(375.65 129.27) rotate(180)"/><rect class="cls-87" x="176.8" y="62.41" width="22.05" height="1.03" transform="translate(375.65 125.84) rotate(180)"/><path class="cls-88" d="M177.5,63.15c2.82,0,13.51-.33,21.12-5.06l-.23-1c-8.68,5.39-21.45,5-21.58,5v1.07Z"/><path class="cls-89" d="M179.4,62.28c3.82,0,10.94-.8,18.64-7.23l-.3-.95c-9.17,7.65-17.52,7.19-20.26,7l-.68,0h0v1.07a5.49,5.49,0,0,1,.65,0C177.94,62.24,178.6,62.28,179.4,62.28Z"/></g><g class="cls-2"><polygon class="cls-90" points="150.53 35.87 150.53 39.14 145.96 45.6 145.96 81.64 161.95 81.64 161.95 45.6 166.52 39.14 166.52 35.87 150.53 35.87"/><polygon class="cls-91" points="156.11 45.6 151.54 39.14 167.53 39.14 172.1 45.6 156.11 45.6"/><rect class="cls-92" x="151.54" y="35.87" width="15.99" height="3.27" transform="translate(319.07 75) rotate(180)"/><rect class="cls-93" x="156.11" y="45.6" width="15.99" height="36.03" transform="translate(328.21 127.24) rotate(180)"/><rect class="cls-94" x="145.96" y="57.89" width="10.32" height="11.46"/><rect class="cls-95" x="156.11" y="57.89" width="15.99" height="11.46" transform="translate(328.21 127.24) rotate(180)"/></g><g class="cls-2"><path class="cls-96" d="M153.05,54.26l-21.53-7.79-3,8.43-2.51,7-3,8.43,21.53,7.79ZM132.4,48.55a.47.47,0,1,1-.6.28A.47.47,0,0,1,132.4,48.55Zm-7.46,20.71a.47.47,0,1,1,.6-.28A.47.47,0,0,1,124.94,69.26Zm.72-2a.46.46,0,1,1,.31-.87.46.46,0,1,1-.31.87Zm.71-2A.47.47,0,1,1,127,65,.47.47,0,0,1,126.37,65.29Zm.71-2a.48.48,0,0,1-.28-.6.47.47,0,1,1,.28.6Zm.72-2a.46.46,0,0,1-.28-.6.46.46,0,0,1,.59-.28.47.47,0,0,1,.29.6A.48.48,0,0,1,127.8,61.33Zm.71-2a.46.46,0,0,1-.28-.59.48.48,0,0,1,.6-.29.47.47,0,0,1,.28.6A.46.46,0,0,1,128.51,59.34Zm.72-2a.47.47,0,1,1,.59-.28A.46.46,0,0,1,129.23,57.36Zm.71-2a.47.47,0,1,1,.6-.28A.47.47,0,0,1,129.94,55.38Zm.71-2a.47.47,0,1,1,.32-.88.46.46,0,0,1,.28.6A.48.48,0,0,1,130.65,53.4Zm.72-2a.45.45,0,0,1-.28-.59.46.46,0,1,1,.87.31A.45.45,0,0,1,131.37,51.41Z"/></g><g class="cls-2"><path class="cls-97" d="M145.78,55.23,121.66,54l-.5,9.85L120.74,72l-.5,9.85,24.12,1.24Zm-22.62.67a.5.5,0,0,1,.46.54.51.51,0,0,1-.51.49.52.52,0,0,1,0-1Zm-1.24,24.2a.52.52,0,1,1,.52-.49A.51.51,0,0,1,121.92,80.1Zm.12-2.32a.5.5,0,0,1-.46-.54.51.51,0,0,1,.51-.49.5.5,0,0,1,.46.54A.49.49,0,0,1,122,77.78Zm.12-2.31a.51.51,0,0,1-.46-.54.49.49,0,1,1,1,0A.5.5,0,0,1,122.16,75.47Zm.12-2.32a.52.52,0,0,1,0-1,.52.52,0,0,1,0,1Zm.12-2.32a.49.49,0,0,1-.46-.54.5.5,0,0,1,.51-.49.52.52,0,0,1,0,1Zm.11-2.32a.51.51,0,0,1,.06-1A.5.5,0,0,1,123,68,.5.5,0,0,1,122.51,68.51Zm.12-2.31a.52.52,0,0,1,.06-1,.51.51,0,0,1,.46.54A.52.52,0,0,1,122.63,66.2Zm.12-2.32a.5.5,0,0,1-.46-.54.51.51,0,0,1,.51-.49.52.52,0,0,1,0,1Zm.12-2.32a.52.52,0,0,1,0-1,.5.5,0,0,1,.46.54A.49.49,0,0,1,122.87,61.56Zm.12-2.31a.5.5,0,0,1-.46-.54.49.49,0,0,1,.51-.49.52.52,0,0,1-.05,1Z"/><path class="cls-98" d="M142.6,58.45c-3.09-.24-4.13,0-7.23-.07-1.52,0-9.26-.86-9.57,0,0,0,0-.11,0-.12s-.09,0-.2,0-.13.43,0,.43c6.34-.06,10.68.84,17,.35C142.88,59,142.86,58.47,142.6,58.45Z"/><path class="cls-98" d="M142.32,61.21c-3.06-.49-4.12-.23-7.21-.18s-6.21-.32-9.26,0c-.26,0-.24.61,0,.58,3-.35,6.2-.07,9.26-.13a69.37,69.37,0,0,1,7.21.21C142.56,61.72,142.54,61.25,142.32,61.21Z"/><path class="cls-98" d="M141.85,63.92c-5.77-1.13-10.07-.67-15.91-.32-.2,0-.19.44,0,.45,5.94.28,9.92-.64,15.8.53C142.08,64.64,142.12,64,141.85,63.92Z"/><path class="cls-98" d="M130.76,66.4a5.14,5.14,0,0,0-3.93,1.76c-1.4,1.66-1.87,4.33,0,5.82a5.57,5.57,0,0,0,2.6,1.06,4.36,4.36,0,0,0,3.82-1.29,5.17,5.17,0,0,0,1.39-3.54A3.69,3.69,0,0,0,133,67,4.38,4.38,0,0,0,130.76,66.4Zm-1,.74c.24-.06.49-.11.74-.15a3.47,3.47,0,0,1,3.69,3.62,10.28,10.28,0,0,0-2.2-.11c-.66,0-2.11,0-2.05,0a7.93,7.93,0,0,1-.2-1.89A6,6,0,0,1,129.76,67.14Zm-3.43,5.21a3.13,3.13,0,0,1-.18-1.54,4.36,4.36,0,0,1,3.13-3.53c0,.6,0,1.19,0,1.79,0,.11.08,1.6.07,1.6a11.61,11.61,0,0,0-1.93,1C127.07,71.93,126.69,72.13,126.33,72.35ZM130,74.47A3.65,3.65,0,0,1,126.65,73c.3-.21.59-.43.89-.62a23,23,0,0,0,2-1.24s1.49.73,2,1a13.54,13.54,0,0,0,1.57,1A5,5,0,0,1,130,74.47Zm3.33-1.76a6.49,6.49,0,0,0-1.48-1c-.25-.15-1-.52-1.28-.66.19,0,2.9.07,3.58.09a3.91,3.91,0,0,1-.39,1.06A1.82,1.82,0,0,1,133.3,72.71Z"/><path class="cls-98" d="M141.43,68.54c-1.19,0-.19-.06-1.38-.08a16.7,16.7,0,0,0-3.39,0c-.11,0-.13.25,0,.28a14,14,0,0,0,3.42.31c1.2,0,1.2,0,1.43,0S141.64,68.53,141.43,68.54Z"/><path class="cls-98" d="M141.26,72.14c.19,0,.16-.38,0-.4a44,44,0,0,0-4.88-.44c-.11,0-.12.26,0,.28C138.59,72,139,72.33,141.26,72.14Z"/><path class="cls-98" d="M136.11,74.31c2.4,0,2.77.36,5.15.16.21,0,.23-.46,0-.5a16.79,16.79,0,0,0-5.2-.26C135.83,73.72,135.85,74.31,136.11,74.31Z"/><path class="cls-98" d="M141.25,78.41c-6.16.4-10.1-.68-16.24-.64-.18,0-.17.38,0,.4,6.06.63,10.15,1.27,16.24.9C141.56,79.05,141.54,78.39,141.25,78.41Z"/></g></g></g></g></svg>