<svg xmlns="http://www.w3.org/2000/svg" viewBox="0 0 42.67 29.27"><defs><style>.cls-1{opacity:0.82;}.cls-2{fill:#332a06;}</style></defs><title>inbound_1</title><g id="Layer_2" data-name="Layer 2"><g id="FRAME"><g id="Group_78" data-name="Group 78" class="cls-1"><path id="Path_12" data-name="Path 12" class="cls-2" d="M0,9.55V19.1H27.63V0H0ZM14.3,4c.65.51,2.82,2,4.8,3.31,3.34,2.24,3.62,2.46,3.62,3S22.46,11,18,13.76a52,52,0,0,1-5.06,2.93,2.12,2.12,0,0,1-.71-.18c-.31-.19-.35-.41-.35-2.41V11.87H4.64V8h7.23V5.88c0-2.12.07-2.41.56-2.6S13.13,3.15,14.3,4Z"/><path id="Path_13" data-name="Path 13" class="cls-2" d="M28.37,10v9.83H12.52l.93.45A6.38,6.38,0,0,1,16,22.79a5.92,5.92,0,0,1,.45,1.54l.13,1,5.49.06,5.49,0,.13-.78a5.53,5.53,0,0,1,5.15-4.78c2.53,0,4.46,1.74,5,4.51l.22,1.09,1.45-.07c1.3-.06,1.5-.11,2-.61,1.06-1,1.11-1.25,1.11-5a22.15,22.15,0,0,0-1.57-9.18C39.37,5.69,38.59,5,34.42,4.84L32,4.73l-.45-1.1a10.59,10.59,0,0,0-1-1.89,3.85,3.85,0,0,0-2-1.55C28.43.19,28.37,2.82,28.37,10Zm9.26-1.68c1,1,1.7,3.48,1.74,6,0,1.42,0,1.52-.37,1.57a3.3,3.3,0,0,1-1.39-.48,8,8,0,0,0-4.17-1.11l-1.82-.13-.06-2.88c0-1.57,0-3,0-3.09S32.38,8,34.49,8c2.47,0,2.82,0,3.14.36Z"/><path id="Path_14" data-name="Path 14" class="cls-2" d="M0,21.38c0,1.45,0,1.58.52,2A8.74,8.74,0,0,0,4.19,25c2,.5,2.12.48,2.12-.19A6.5,6.5,0,0,1,7.7,21.57a5.77,5.77,0,0,1,1.61-1.25l1-.48H0Z"/><path id="Path_15" data-name="Path 15" class="cls-2" d="M10.39,20.75A4.41,4.41,0,0,0,7.23,26a4.32,4.32,0,0,0,8.5-.53,4.34,4.34,0,0,0-.44-2.4,4,4,0,0,0-2.6-2.18A3.63,3.63,0,0,0,10.39,20.75Z"/><path id="Path_16" data-name="Path 16" class="cls-2" d="M31.71,20.76a4.34,4.34,0,1,0,4.35,1.42,4.39,4.39,0,0,0-2-1.3A3.8,3.8,0,0,0,31.71,20.76Z"/></g></g></g></svg>