<svg xmlns="http://www.w3.org/2000/svg" viewBox="0 0 15.7 10.2"><defs><style>.cls-1{fill:#fff;}</style></defs><title>manageUserz</title><g id="Layer_2" data-name="Layer 2"><g id="FRAME"><g id="Group_76" data-name="Group 76"><g id="Group_32" data-name="Group 32"><g id="people"><path id="Path_9" data-name="Path 9" class="cls-1" d="M3.79,6.78A2.43,2.43,0,0,0,5,6.46c-.54-.83-.25-1.78-.36-2.68A1.47,1.47,0,0,0,3,2.35H3A1.49,1.49,0,0,0,1.34,3.69v.09c-.12.89.2,2-.36,2.68a2.2,2.2,0,0,0,1.17.29,1.89,1.89,0,0,1,0,.58,1,1,0,0,1-.42.2,7.21,7.21,0,0,0-.91.25A1.47,1.47,0,0,0,0,9.08H2.81A2.48,2.48,0,0,1,3.93,8a2.11,2.11,0,0,1,.86-.18s.13-.21-.3-.29a3,3,0,0,1-.67-.24C3.75,7.25,3.79,6.78,3.79,6.78Zm8.12,0a2.43,2.43,0,0,1-1.17-.32c.54-.83.25-1.78.36-2.68a1.47,1.47,0,0,1,1.64-1.43h0a1.48,1.48,0,0,1,1.61,1.34.28.28,0,0,1,0,.09c.11.89-.2,2,.36,2.68a2.24,2.24,0,0,1-1.18.29,1.63,1.63,0,0,0,0,.58.91.91,0,0,0,.42.2,6.63,6.63,0,0,1,.9.25,1.45,1.45,0,0,1,.79,1.3H12.89a2.45,2.45,0,0,0-1.11-1,2.19,2.19,0,0,0-.87-.18s-.13-.21.31-.29a3.36,3.36,0,0,0,.67-.24,1.76,1.76,0,0,0,0-.55Z"/></g></g><path id="Path_8" data-name="Path 8" class="cls-1" d="M11.11,7.85c-.39-.14-1-.15-1.32-.26a1.78,1.78,0,0,1-.61-.28,3.83,3.83,0,0,1-.1-1,1.42,1.42,0,0,0,.35-.49,6,6,0,0,0,.17-1s.23.1.32-.36a2.91,2.91,0,0,0,.18-.9c0-.3-.2-.22-.2-.22a2.67,2.67,0,0,0,.2-1.31A2.09,2.09,0,0,0,7.84,0,2.1,2.1,0,0,0,5.58,2.07a2.67,2.67,0,0,0,.2,1.31s-.16-.07-.2.22a2.91,2.91,0,0,0,.18.9c.09.46.33.36.33.36a5.07,5.07,0,0,0,.16,1,1.57,1.57,0,0,0,.35.49,3.83,3.83,0,0,1-.1,1,1.7,1.7,0,0,1-.61.28c-.28.11-.92.12-1.32.26A2.49,2.49,0,0,0,3,10.2h9.74A2.46,2.46,0,0,0,11.11,7.85Z"/></g></g></g></svg>