<svg xmlns="http://www.w3.org/2000/svg" viewBox="0 0 10.32 8.97"><defs><style>.cls-1{fill:#f4f4f4;}</style></defs><title>Asset 25</title><g id="Layer_2" data-name="Layer 2"><g id="FRAME"><path class="cls-1" d="M2.05.31a.3.3,0,1,1-.59,0,.3.3,0,0,1,.59,0Z"/><path class="cls-1" d="M3.18,1.44a.3.3,0,1,1-.59,0,.3.3,0,0,1,.59,0Z"/><path class="cls-1" d="M3.18,2.9a.3.3,0,1,1-.29-.29A.29.29,0,0,1,3.18,2.9Z"/><path class="cls-1" d="M4.62,3.35a.29.29,0,1,1-.29-.29A.29.29,0,0,1,4.62,3.35Z"/><path class="cls-1" d="M5.14,4.61a.3.3,0,1,1-.59,0,.3.3,0,0,1,.59,0Z"/><path class="cls-1" d="M5.14,5.82a.3.3,0,0,1-.59,0,.3.3,0,1,1,.59,0Z"/><path class="cls-1" d="M6.34,6.4a.29.29,0,1,1-.58,0,.29.29,0,0,1,.58,0Z"/><path class="cls-1" d="M7.53,7.09a.3.3,0,1,1-.3-.3A.29.29,0,0,1,7.53,7.09Z"/><path class="cls-1" d="M8.73,6.7a.3.3,0,0,1-.59,0,.3.3,0,1,1,.59,0Z"/><path class="cls-1" d="M7.53,8.23a.3.3,0,1,1-.3-.29A.29.29,0,0,1,7.53,8.23Z"/><path class="cls-1" d="M4.07,6.5a.29.29,0,1,1-.29-.29A.29.29,0,0,1,4.07,6.5Z"/><path class="cls-1" d="M3.78,7.72a.3.3,0,0,1-.29.3.31.31,0,0,1-.3-.3.3.3,0,0,1,.3-.29A.29.29,0,0,1,3.78,7.72Z"/><path class="cls-1" d="M4.55,8.68a.29.29,0,1,1-.29-.29A.29.29,0,0,1,4.55,8.68Z"/><path class="cls-1" d="M2.64,8.23a.3.3,0,0,1-.3.29.29.29,0,1,1,0-.58A.3.3,0,0,1,2.64,8.23Z"/><path class="cls-1" d="M5.43,2.2a.29.29,0,1,1-.29-.3A.29.29,0,0,1,5.43,2.2Z"/><path class="cls-1" d="M6.77,2a.29.29,0,1,1-.29-.29A.29.29,0,0,1,6.77,2Z"/><path class="cls-1" d="M7.86,2.92a.3.3,0,1,1-.29-.29A.29.29,0,0,1,7.86,2.92Z"/><path class="cls-1" d="M8.44,4.11a.3.3,0,1,1-.59,0,.3.3,0,0,1,.59,0Z"/><path class="cls-1" d="M7.49,5.12a.3.3,0,1,1-.3-.29A.29.29,0,0,1,7.49,5.12Z"/><path class="cls-1" d="M10,4.53a.3.3,0,0,1-.29.3.31.31,0,0,1-.3-.3.3.3,0,0,1,.3-.29A.29.29,0,0,1,10,4.53Z"/><path class="cls-1" d="M9.25,2.63a.3.3,0,0,1-.59,0,.3.3,0,1,1,.59,0Z"/><path class="cls-1" d="M10.32,3.21a.31.31,0,0,1-.3.3.3.3,0,0,1-.29-.3A.29.29,0,0,1,10,2.92.3.3,0,0,1,10.32,3.21Z"/><path class="cls-1" d="M9.6,1.36a.29.29,0,0,1-.29.3.3.3,0,1,1,0-.59A.29.29,0,0,1,9.6,1.36Z"/><path class="cls-1" d="M7.53.88a.3.3,0,1,1-.3-.29A.29.29,0,0,1,7.53.88Z"/><path class="cls-1" d="M1.91,3.64a.3.3,0,1,1-.59,0,.3.3,0,0,1,.59,0Z"/><path class="cls-1" d="M2.05,4.84a.3.3,0,0,1-.59,0,.3.3,0,1,1,.59,0Z"/><path class="cls-1" d="M.59,2.9a.29.29,0,0,1-.3.29.29.29,0,0,1,0-.58A.29.29,0,0,1,.59,2.9Z"/><path class="cls-1" d="M4.33.29a.3.3,0,1,1-.59,0,.3.3,0,0,1,.59,0Z"/><polygon class="cls-1" points="2.89 1.48 1.74 0.33 1.78 0.29 2.89 1.4 4.01 0.27 4.06 0.31 2.89 1.48"/><polygon class="cls-1" points="1.73 4.84 1.59 3.66 0.28 2.93 0.31 2.88 1.64 3.63 1.78 4.83 1.73 4.84"/><polygon class="cls-1" points="4.24 8.7 3.46 7.73 3.75 6.48 4.82 5.8 4.82 4.62 4.31 3.37 2.89 2.93 1.63 3.67 1.6 3.62 2.88 2.87 4.35 3.33 4.36 3.34 4.88 4.61 4.88 5.83 3.81 6.52 3.52 7.72 4.28 8.66 4.24 8.7"/><rect class="cls-1" x="2.29" y="7.95" width="1.25" height="0.06" transform="translate(-2.99 1.88) rotate(-24)"/><polygon class="cls-1" points="7.26 8.23 7.21 8.23 7.21 7.1 6.04 6.43 4.83 5.84 4.86 5.79 6.07 6.38 7.26 7.07 7.26 8.23"/><rect class="cls-1" x="7.2" y="6.86" width="1.27" height="0.06" transform="translate(-1.75 2.77) rotate(-18.06)"/><polygon class="cls-1" points="4.35 3.37 4.3 3.33 5.12 2.1 6.49 1.92 7.58 2.89 8.93 2.6 9.28 1.35 9.34 1.37 8.98 2.65 7.56 2.95 6.47 1.98 5.16 2.16 4.35 3.37"/><rect class="cls-1" x="6.2" y="1.39" width="1.31" height="0.06" transform="translate(1.75 6.2) rotate(-54.81)"/><rect class="cls-1" x="9.46" y="2.31" width="0.06" height="1.22" transform="translate(2.36 9.82) rotate(-61.17)"/><polygon class="cls-1" points="9.72 4.56 8.12 4.14 7.54 2.93 7.59 2.91 8.16 4.09 9.73 4.5 9.72 4.56"/><rect class="cls-1" x="6.98" y="4.59" width="1.38" height="0.06" transform="translate(-0.95 7.03) rotate(-46.68)"/><rect class="cls-1" x="2.86" y="1.44" width="0.06" height="1.61"/><path class="cls-1" d="M1.82,2a.29.29,0,0,1-.29.29.29.29,0,1,1,0-.58A.29.29,0,0,1,1.82,2Z"/><path class="cls-1" d="M3.33,4.17A.29.29,0,1,1,3,3.88.29.29,0,0,1,3.33,4.17Z"/><path class="cls-1" d="M1.46,6.27a.3.3,0,0,1-.29.3.3.3,0,0,1-.29-.3.29.29,0,0,1,.58,0Z"/><path class="cls-1" d="M6.33,3.64A.29.29,0,1,1,6,3.35.29.29,0,0,1,6.33,3.64Z"/><path class="cls-1" d="M5.88.78a.3.3,0,0,1-.59,0,.3.3,0,1,1,.59,0Z"/><path class="cls-1" d="M8.86,5.52a.3.3,0,1,1-.59,0,.3.3,0,0,1,.59,0Z"/><path class="cls-1" d="M5.38,7.43a.3.3,0,1,1-.29-.29A.29.29,0,0,1,5.38,7.43Z"/></g></g></svg>