<svg xmlns="http://www.w3.org/2000/svg" viewBox="0 0 15.77 15.76"><defs><style>.cls-1{fill:#fff;}</style></defs><title>homeW</title><g id="Layer_2" data-name="Layer 2"><g id="FRAME"><path id="Path_10" data-name="Path 10" class="cls-1" d="M8,2.13a.14.14,0,0,0-.19,0L1.88,6.85A.16.16,0,0,0,1.82,7v8.72a.08.08,0,0,0,.08.07H6a.08.08,0,0,0,.08-.07V10.38a.07.07,0,0,1,.07-.07H9.63a.07.07,0,0,1,.07.07v5.31a.08.08,0,0,0,.08.07h4.09a.08.08,0,0,0,.08-.07V7a.16.16,0,0,0-.06-.12Z"/><path id="Path_11" data-name="Path 11" class="cls-1" d="M15.57,5.92,8.4.18a.83.83,0,0,0-1,0L4.25,2.72V1.12A.09.09,0,0,0,4.17,1H1.9a.09.09,0,0,0-.08.08h0V4.61L.2,5.94a.54.54,0,0,0-.09.75l.05,0a.51.51,0,0,0,.37.16.5.5,0,0,0,.33-.12l7-5.61h.1l7,5.59a.61.61,0,0,0,.34.12.54.54,0,0,0,.53-.55h0A.52.52,0,0,0,15.57,5.92Z"/></g></g></svg>