<svg xmlns="http://www.w3.org/2000/svg" xmlns:xlink="http://www.w3.org/1999/xlink" viewBox="0 0 595.61 736.46"><defs><style>.cls-1{fill:none;}.cls-2{clip-path:url(#clip-path);}.cls-3{fill:#558c03;}.cls-4{fill:#265902;}</style><clipPath id="clip-path" transform="translate(-111.84 -68.03)"><polygon class="cls-1" points="1025.25 854.2 0 854.2 0 34.1 1034.8 0 1025.25 854.2"/></clipPath></defs><title>loginwave</title><g id="Layer_2" data-name="Layer 2"><g id="FRAME"><g class="cls-2"><path class="cls-3" d="M636.15,456c5.37,4.79,88.12,80.13,68.21,133-17.32,46-94,26-158,92.09-54,55.7-38.23,109.86-77.3,121.64-54.26,16.36-96.48-84.5-178.49-76.17-50.17,5.1-62.53,45.71-100,37.52C144.38,754,120.7,683.28,114.34,642.4,104.33,578,125,508,165.5,459.36,271,333,515,347.74,636.15,456Z" transform="translate(-111.84 -68.03)"/><path class="cls-4" d="M315.61,111.93C321.53,107.85,414.25,45.19,461,77c40.64,27.68,3.14,97.45,52.23,175.27,41.4,65.62,97.75,63.06,100,103.81,3.11,56.58-104.86,73.83-116.1,155.49-6.88,50,29.67,71.55,12.87,106.07C489.27,660.1,415,666.46,373.77,663c-64.94-5.45-128.16-42-165.81-92.87C110,437.79,181.87,204.19,315.61,111.93Z" transform="translate(-111.84 -68.03)"/></g></g></g></svg>