<svg xmlns="http://www.w3.org/2000/svg" xmlns:xlink="http://www.w3.org/1999/xlink" viewBox="0 0 30.65 37.83"><defs><style>.cls-1{fill:url(#radial-gradient);}.cls-2{fill:url(#linear-gradient);}.cls-3{fill:url(#radial-gradient-2);}.cls-4{fill:url(#radial-gradient-3);}.cls-5{fill:#7b9300;}.cls-6{fill:#6506e7;}</style><radialGradient id="radial-gradient" cx="-4.44" cy="24.28" r="27.09" gradientUnits="userSpaceOnUse"><stop offset="0" stop-color="#98b301"/><stop offset="0.27" stop-color="#8ea701"/><stop offset="0.76" stop-color="#728800"/><stop offset="1" stop-color="#627600"/></radialGradient><linearGradient id="linear-gradient" x1="12.15" y1="33.41" x2="27.98" y2="15.6" gradientUnits="userSpaceOnUse"><stop offset="0" stop-color="#843aee"/><stop offset="0.19" stop-color="#8b46f0"/><stop offset="0.54" stop-color="#9e65f5"/><stop offset="1" stop-color="#bc98fd"/></linearGradient><radialGradient id="radial-gradient-2" cx="4.74" cy="28.6" r="20.3" gradientUnits="userSpaceOnUse"><stop offset="0" stop-color="#dcc7f9"/><stop offset="0.37" stop-color="#6506e7"/></radialGradient><radialGradient id="radial-gradient-3" cx="19.68" cy="6.13" r="20.01" gradientTransform="translate(40.05 -0.99) rotate(136.53) scale(1 1.44)" gradientUnits="userSpaceOnUse"><stop offset="0" stop-color="#e4eac6"/><stop offset="0.04" stop-color="#dce3ba"/><stop offset="0.12" stop-color="#c8d19b"/><stop offset="0.22" stop-color="#a8b568"/><stop offset="0.34" stop-color="#7b8d22"/><stop offset="0.4" stop-color="#667a00"/></radialGradient></defs><title>logo</title><g id="Layer_2" data-name="Layer 2"><g id="FRAME"><path class="cls-1" d="M.91,19.08c0-7.41,4.15-13.62,9.73-15.31A9.72,9.72,0,0,1,15,5.91,9.37,9.37,0,0,1,17,9a14.14,14.14,0,0,1,.72,1.78,22.06,22.06,0,0,0-3.6-.3,12.18,12.18,0,0,0-4.42,1.11,14.25,14.25,0,0,0-4.8,3.57A21.06,21.06,0,0,0,1.1,21.74,19.37,19.37,0,0,1,.91,19.08Z"/><path class="cls-2" d="M26.49,19.08c0,7.41-4.14,13.62-9.73,15.31a9.65,9.65,0,0,1-4.34-2.14,9.23,9.23,0,0,1-2-3.06,14.77,14.77,0,0,1-.72-1.78,22.06,22.06,0,0,0,3.6.3,12.18,12.18,0,0,0,4.42-1.11A14.25,14.25,0,0,0,22.52,23a21.37,21.37,0,0,0,3.79-6.61A21.09,21.09,0,0,1,26.49,19.08Z"/><path class="cls-3" d="M16.76,34.39a10.4,10.4,0,0,1-3.06.46c-4.2,0-7.93-2.5-10.26-6.35A18.24,18.24,0,0,1,.91,19.08c0-.5,0-1,.06-1.49A2.84,2.84,0,0,1,2.64,16.5a3,3,0,0,1,1.84.37c1,.47,2.36,1.48,3.62,4.31S9,25.25,9.7,27.41a14.77,14.77,0,0,0,.72,1.78,9.23,9.23,0,0,0,2,3.06A9.65,9.65,0,0,0,16.76,34.39Z"/><path class="cls-4" d="M10.64,3.77a10.4,10.4,0,0,1,3.06-.46c4.2,0,7.93,2.5,10.26,6.35a18.24,18.24,0,0,1,2.53,9.42c0,.5,0,1-.06,1.49a2.84,2.84,0,0,1-1.67,1.09,3,3,0,0,1-1.84-.37c-1-.47-2.36-1.48-3.62-4.31s-.93-4.07-1.6-6.23A14.14,14.14,0,0,0,17,9a9.37,9.37,0,0,0-2-3.06A9.72,9.72,0,0,0,10.64,3.77Z"/><path class="cls-5" d="M18.82,20.25l.56.14v.13l.17-.07.32.33a1.13,1.13,0,0,1,.19.36l.35-.16.05.28.24.4.07.95a5.4,5.4,0,0,1-.53.73h.22l.08.27-.18.26.18.12a1.75,1.75,0,0,0-.35.56l-.28.05v.33l-.22.54H19.5a2.61,2.61,0,0,1-.41.4l0,.47-.18.26-.17-.06-.05.39-.31.42v-.06a4.42,4.42,0,0,1-.63.74l.08.17-.23.14-.12.23a1.82,1.82,0,0,1-.41.36l-.19.48a1.72,1.72,0,0,1-.4.47v.26l-2,2.41-.69,1.07a1.45,1.45,0,0,0-.48.67,2.8,2.8,0,0,0-.51.59l-.22.51a1.48,1.48,0,0,1-.3.33l-.52.46a6.89,6.89,0,0,1-.1.84h-.17l-.07.16L11.11,37l-.67.42h-.18l-.11.39-.22-.12v-.15l-.22-.06,0,.14-.41.19L9,36.91l-.22-.14.07-.48-.24-.53.07-.4.1-.12V35l.12-.62a1.74,1.74,0,0,1-.29-1l.07-.73L8.14,32l-.46-.73-.09-.53v-.09l-.24-.39H7.23L7,31v.79L5.16,33.76,5,34.12a2,2,0,0,1-.36.49l-.05-.06-.12.33L4.34,35l.19.27-.19.12-.1.87-.5.12-.58.83-.3.32H2.63l-.1.33A1.53,1.53,0,0,1,2,36.91a.94.94,0,0,1-.46-.2A1.57,1.57,0,0,1,2,36l-.05-.27.22-.46,0-1.34H2l.24-.14a7.44,7.44,0,0,1-.34-1.27c.06,0,.13-.29.22-.79a5.44,5.44,0,0,0-.75-1.26l-.1-.62.1-.22v-.25l.17-.34-.1-.51-.33-.45A.67.67,0,0,1,1,27.87l-.13-.41-.35.15,0,.14H.12L0,27.29l.36-.47.45-.95L1,25.73,1,25.67h.14v-.06l.31-.06L2,24.93h.41a1.34,1.34,0,0,0,.34-.38v.11l.33-.2.41.09H3.9v.38l.12.54-.12.4L4,26l-.13.07,0,.52,0,.53-.23.42.05.39v.26l-.17.08-.1.28,0,.85,0,.35v.85l-.05.06-.08.68.18.47v.53l.12.15.1.64.31.15c.17-.38.29-.57.37-.59v-.29l.19.2.12-.26v-.21l.17-.06.11-.26.23-.14,0-.19a1.2,1.2,0,0,0,.5-.26l.13-.36v-.2l0-.17.13.06-.13-.34H6l.22-.28.7-1.12a1.56,1.56,0,0,1,.41-.21V28.4h.1v-.26l0,.06v-.26l.36-.19.74-1.21.07.06.05-.2.22-.06.13-.2.06.06.1-.47.63-.59h.22v.14l.26.39h.1l.17-.12v-.08l.41.2-.13.41-.28.21h-.27l-.13.31.76.22-.18.26-.23.05-.35.42,0,.73v.28l.08.31-.13.42.35,1.27-.08.41.31.43.32,1.3.08.59-.08.41.19.26.29-.08.46-.79h.15l.09-.06h.17l0-.2.05.26V32.5l.58-.42.5-.79.83-1.11a1.64,1.64,0,0,1,.44-.36v-.21l.4-.41,0-.18.08.05.05-.2A1.94,1.94,0,0,0,16,28.4l.75-1,.46-.53v-.06l.12-.22.28-.34a2,2,0,0,1,.4-.53l.11-.39.17-.2.46-.79v-.62l.12-.42-.68-.44-.35.05-.13-.14-.05.14-.32,0a3.83,3.83,0,0,1-.64-.32l-.17.14-.19-.05-.12.2h-.15l-.48.44-.23-.11-.32.4h-.31l-.1-.29.41-.17.22-.83.1-.06.4-.85.94-.47,1-.2.18-.15h.23l.4-.27Z"/><path class="cls-6" d="M16.84,0,17,.09l.36.64L17.64,2l-.26-.13a8,8,0,0,1,.51,2.72l.29.37L18,5.91l.19.14.12.94.18.2V8.1l.23.4-.16.42a3.76,3.76,0,0,0,.34.64v.67l-.1.33.49.37.22.64.29-.06a1.78,1.78,0,0,0,.49-.28h.22v-.12l.54-.94h.1l-.05-.2.92-1.14.23-.53c.07,0,.3-.17.69-.58l.13.06,0-.19a1.27,1.27,0,0,1,.23-.36l.28-.37a1.31,1.31,0,0,1,.72-.54l.1-.47-.15-.53.05-.41.24-.12-.14-.31A2.18,2.18,0,0,0,25,4L25,3.45l.19-.17.1-.41h.12V2.45l.29-.31c.27-.14.62-.34,1.05-.59a3.07,3.07,0,0,1,.81-.61l.34.67.17-.14.31.14-.13.26L28.5,3l-.41.64h-.27l-.19.62-.28.52-.07.73-.11.67.11.8L27,7.36l0,.39a1.7,1.7,0,0,1-.19.5v.2l.05.38-.05.26L27,10.64l-.1.32.05.67.74,2.25L29.09,17l.1.64v.08l.08.33h.33l.23-.25v.11l.46-.33.07.33.29.26-.29.81-.58.39-.18.41-.92.31-.28.47-.58.26-.14-.06-.28-.67-.12.16L27,20.19l-.22.27-.29-.09-.12-.18c.11-.18.23-.41.36-.67l-.65-2-.23-.19-.53-1.53-.24-1.09L24.43,13v-.18L24.21,12l-.13-.29A4.34,4.34,0,0,1,24,11L23.57,8.3l-1.51,2.2L21,12.43l-.12.4-.29.18.29.56-.07.51.19.13-.29.4a3.25,3.25,0,0,1-.48.73v.27a5.86,5.86,0,0,0-.46.67l-.28-.2-.46.58-.29.25a1.45,1.45,0,0,0-.3.39,2.92,2.92,0,0,0-.22.43l-.36.08a4.36,4.36,0,0,1-.39-1.09l.12-.18-.12-.35V15.14l.05-.47-.18-.46.05-.06-.17-.47-.24-1.92-.17-.47.05-.53c0-.07-.05-.14-.07-.2l-.12-.39L16.5,9.9c-.06-.11-.15-.25-.25-.4l-.46.14-.17.39v.4L14.92,13l-.35.56-.41,1.57v.14l-.42.8.27.37-.2.44a1.42,1.42,0,0,1-.29.39l0,.45-.41.28.07.17-.12.14.05.53-.41.53.07.35a1.11,1.11,0,0,0-.3.46l-.29.18-.27.67-.77.42-.47.31-.17.42-.74.37-.31-.12-.28.06-.28-.2L9,22.1,9.62,22l-.15-.87L9.62,21l.14-.27-.19-.2,0-.52c.55-.24.84-.47.88-.67a4.48,4.48,0,0,1,1.12-.53l.16-.67.18-.37.1-.66a.86.86,0,0,1,.11-.29l.25-.41-.1-.26.18-.78.22-.22a3.82,3.82,0,0,1,.29-1l-.13-.27.25-.47v-.2l.1-.17-.05-.27.18-.4.38-2,.19-.14.13-.47-.19-.12.19-.53L14,8.3l.05-.2L14,7.52l.22-.47-.36-.79.19-.61-.19-.39a3.67,3.67,0,0,1,.24-.78l-.29-.74a2.6,2.6,0,0,0-.86.58l-.14-.05-.74.52-.41.39L11,5.65l-.54.09L10,4.65l.18-.06-.06-.21a2.24,2.24,0,0,0,.7-.57H11a7.21,7.21,0,0,1,.92-.74V2.92h.41l1-.72h.16l.12-.27,0,.15.13-.21h.41L15.52,1c.21-.22.35-.35.41-.4l.15-.13a1.37,1.37,0,0,1,.45-.11Z"/></g></g></svg>