<?xml version="1.0" encoding="iso-8859-1"?>
<!-- Generator: Adobe Illustrator 16.0.0, SVG Export Plug-In . SVG Version: 6.00 Build 0)  -->
<!DOCTYPE svg PUBLIC "-//W3C//DTD SVG 1.1//EN" "http://www.w3.org/Graphics/SVG/1.1/DTD/svg11.dtd">
<svg version="1.1" id="Capa_1" xmlns="http://www.w3.org/2000/svg" xmlns:xlink="http://www.w3.org/1999/xlink" x="0px" y="0px"
	 width="213.86px" height="213.86px" viewBox="0 0 213.86 213.86" style="enable-background:new 0 0 213.86 213.86;"
	 xml:space="preserve">
<g>
	<g>
		<path d="M213.394,112.423c-0.565-0.92-1.57-1.48-2.648-1.48h-97.043l-9.562-7.462c0.998-3.988-1.209-8.104-5.179-9.331
			l-23.239-7.204L59.177,62.403c0-3.928-1.82-7.508-4.786-9.812c-1.498-2.135-3.842-3.654-6.637-3.955
			c-3.422-0.375-6.622,1.224-8.528,3.849c-2.576,1.957-4.403,4.907-4.832,8.366l-6.235,49.885c-0.393,3.148,0.466,6.145,2.131,8.574
			l-9.578,39.677L1.464,189.237c-2.773,4.359-1.489,10.139,2.868,12.909c1.559,0.999,3.294,1.461,5.015,1.461
			c3.093,0,6.116-1.534,7.9-4.335l20.082-31.555c0.548-0.864,0.962-1.82,1.196-2.825l6.293-26.073l15.451,21.592l8.574,36.012
			c1.023,4.293,4.856,7.185,9.091,7.185c0.716,0,1.446-0.085,2.177-0.262c5.024-1.188,8.129-6.235,6.933-11.259l-8.997-37.795
			c-0.283-1.176-0.786-2.296-1.492-3.271l-24.46-34.19c0.381-0.956,0.679-1.942,0.81-3.002l3.461-27.706l7.962,11.81
			c0.992,1.471,2.463,2.561,4.159,3.084l25.857,8.014c0.773,0.243,1.547,0.353,2.314,0.353c1.297,0,2.512-0.401,3.635-1.011
			l9.396,7.338l6.083,53.262c0.183,1.571,1.511,2.765,3.1,2.765h64.648c1.182,0,2.266-0.67,2.789-1.729l27.23-54.559
			C214.015,114.493,213.96,113.342,213.394,112.423z M205.697,117.19l-3.738,7.49h-84.975l-0.853-7.49H205.697z M195.114,138.405
			h-76.559l-0.858-7.496h81.156L195.114,138.405z M188.258,152.136H120.12l-0.853-7.495h72.735L188.258,152.136z M181.591,165.514
			h-59.942l-0.815-7.143h64.308L181.591,165.514z"/>
		<path d="M121.356,173.704c-6.527,0-11.84,5.315-11.84,11.844c0,6.527,5.312,11.837,11.84,11.837s11.837-5.31,11.837-11.837
			C133.193,179.02,127.884,173.704,121.356,173.704z M121.356,191.149c-3.094,0-5.608-2.509-5.608-5.602
			c0-3.094,2.515-5.608,5.608-5.608s5.602,2.515,5.602,5.608C126.958,188.641,124.45,191.149,121.356,191.149z"/>
		<path d="M179.812,173.704c-6.527,0-11.844,5.315-11.844,11.844c0,6.527,5.316,11.837,11.844,11.837s11.837-5.31,11.837-11.837
			C191.649,179.02,186.34,173.704,179.812,173.704z M179.812,191.149c-3.094,0-5.608-2.509-5.608-5.602
			c0-3.094,2.515-5.608,5.608-5.608c3.093,0,5.602,2.515,5.602,5.608C185.414,188.641,182.905,191.149,179.812,191.149z"/>
		<circle cx="59.04" cy="29.607" r="19.354"/>
	</g>
</g>
<g>
</g>
<g>
</g>
<g>
</g>
<g>
</g>
<g>
</g>
<g>
</g>
<g>
</g>
<g>
</g>
<g>
</g>
<g>
</g>
<g>
</g>
<g>
</g>
<g>
</g>
<g>
</g>
<g>
</g>
</svg>
