<svg xmlns="http://www.w3.org/2000/svg" viewBox="0 0 118.68 64.98"><defs><style>.cls-1{fill:#1d4259;}.cls-2{fill:#0f222c;}.cls-3{fill:#e8bf7c;}.cls-4{fill:#d0a569;}.cls-5{fill:#ab7a45;}.cls-6{fill:#d0a56b;}.cls-7{fill:#986e3e;}.cls-8{fill:#a87944;}.cls-9{fill:#ff524f;}.cls-10{fill:#f2f2f2;}.cls-11{fill:#ce3836;}.cls-12{fill:#222846;}.cls-13{fill:#1b3241;}</style></defs><title>outboundPopup</title><g id="Layer_2" data-name="Layer 2"><g id="FRAME"><path class="cls-1" d="M118.68,63.46c0,.84-29.79,1.52-66.55,1.52S0,64.3,0,63.46,15.37,62,52.13,62,118.68,62.62,118.68,63.46Z"/><path class="cls-2" d="M19.8,47.13a8.52,8.52,0,1,1,0,17H17.44v-17Z"/><path class="cls-2" d="M64.26,47.13a8.52,8.52,0,1,1,0,17H61.9v-17Z"/><path class="cls-2" d="M19.8,47.13a8.52,8.52,0,1,1,0,17H17.44v-17Z"/><path class="cls-2" d="M27.4,54.06a8.52,8.52,0,1,1,8.51,8.51A8.51,8.51,0,0,1,27.4,54.06Z"/><path class="cls-2" d="M83.74,45.54a8.52,8.52,0,1,1,0,17H81.38v-17Z"/><path class="cls-2" d="M72.86,54.06a8.52,8.52,0,1,1,8.52,8.51A8.52,8.52,0,0,1,72.86,54.06Z"/><rect class="cls-3" x="61.9" width="43.68" height="15.09" transform="translate(167.48 15.09) rotate(180)"/><rect class="cls-3" x="44.43" y="15.04" width="34.94" height="34.94" transform="translate(123.8 65.03) rotate(180)"/><rect class="cls-4" x="59.22" y="15.04" width="5.37" height="34.94" transform="translate(94.42 -29.39) rotate(90)"/><rect class="cls-5" x="58.26" y="29.83" width="7.29" height="5.37" transform="translate(123.8 65.03) rotate(180)"/><rect class="cls-4" x="59.22" y="15.04" width="5.37" height="34.94" transform="translate(123.8 65.03) rotate(180)"/><rect class="cls-6" x="79.37" y="15.04" width="26.21" height="34.94" transform="translate(184.95 65.03) rotate(180)"/><rect class="cls-5" x="89.79" y="19.41" width="5.37" height="26.21" transform="translate(124.99 -59.96) rotate(90)"/><rect class="cls-7" x="88.72" y="29.83" width="7.29" height="5.37" transform="translate(184.74 65.03) rotate(180)"/><polygon class="cls-8" points="79.37 15.09 105.58 15.09 118.68 2.06 92.48 2.06 79.37 15.09"/><rect class="cls-5" x="89.69" y="15.04" width="5.37" height="34.94"/><polygon class="cls-7" points="89.69 15.04 95.05 15.04 108.04 2.06 102.67 2.06 89.69 15.04"/><polygon class="cls-6" points="79.37 15.04 44.43 15.04 31.33 1.94 66.27 1.94 79.37 15.04"/><polygon class="cls-5" points="64.58 15.04 59.22 15.04 46.12 1.94 51.48 1.94 64.58 15.04"/><path class="cls-1" d="M0,50H76.54a2.83,2.83,0,0,1,2.83,2.83v0a2.83,2.83,0,0,1-2.83,2.83H0a0,0,0,0,1,0,0V50A0,0,0,0,1,0,50Z" transform="translate(79.37 105.63) rotate(180)"/><path class="cls-9" d="M1.68,50H44.43V15H23a12.58,12.58,0,0,0-10.43,5.55L3.84,33.52a12.57,12.57,0,0,0-2.16,7Z"/><path class="cls-10" d="M34.17,35.72V19H23a8.63,8.63,0,0,0-7.17,3.81L7.1,35.72Z"/><rect class="cls-11" x="39.28" y="15.04" width="5.15" height="34.94" transform="translate(83.71 65.03) rotate(180)"/><path class="cls-2" d="M61.51,45.54a10.11,10.11,0,0,1,10.1,10.11H51.4A10.11,10.11,0,0,1,61.51,45.54Z"/><path class="cls-2" d="M17.05,45.54A10.11,10.11,0,0,1,27.16,55.65H7A10.11,10.11,0,0,1,17.05,45.54Z"/><path class="cls-12" d="M53.39,55.65a8.52,8.52,0,1,1,8.51,8.51A8.51,8.51,0,0,1,53.39,55.65Z"/><circle class="cls-10" cx="61.9" cy="55.65" r="4.19" transform="translate(-2.91 107.87) rotate(-80.81)"/><circle class="cls-12" cx="17.44" cy="55.65" r="8.52"/><circle class="cls-10" cx="17.44" cy="55.65" r="4.19" transform="translate(-40.27 63.98) rotate(-80.81)"/><rect class="cls-11" x="79.37" y="43.8" width="3.65" height="3.47" transform="translate(162.39 91.08) rotate(180)"/><rect class="cls-9" x="75.72" y="43.8" width="3.65" height="3.47" transform="translate(155.1 91.08) rotate(180)"/><rect class="cls-11" x="101.93" y="43.8" width="3.65" height="3.47" transform="translate(207.51 91.08) rotate(180)"/><path class="cls-11" d="M28.68,37.12h5.49a0,0,0,0,1,0,0v0A1.83,1.83,0,0,1,32.34,39H30.51a1.83,1.83,0,0,1-1.83-1.83v0a0,0,0,0,1,0,0Z"/><path class="cls-12" d="M28.68,37.12h5.49a0,0,0,0,1,0,0v0a1.38,1.38,0,0,1-1.38,1.38H30.05a1.38,1.38,0,0,1-1.38-1.38v0a0,0,0,0,1,0,0Z"/><path class="cls-10" d="M5,45.54a3.32,3.32,0,0,0-3.32-3.32v6.64A3.32,3.32,0,0,0,5,45.54Z"/><rect class="cls-13" x="77.69" y="49.99" width="29.57" height="5.66" rx="1.68"/><path class="cls-10" d="M82.4,52.82A1.21,1.21,0,1,0,81.2,54,1.21,1.21,0,0,0,82.4,52.82Z"/><path class="cls-10" d="M84.47,52.82a.6.6,0,1,0-1.2,0,.6.6,0,1,0,1.2,0Z"/><path class="cls-10" d="M102.55,52.82a1.21,1.21,0,1,0,1.2-1.21A1.2,1.2,0,0,0,102.55,52.82Z"/><path class="cls-10" d="M100.48,52.82a.6.6,0,0,0,1.2,0,.6.6,0,0,0-1.2,0Z"/></g></g></svg>