<svg xmlns="http://www.w3.org/2000/svg" viewBox="0 0 39.44 20.04"><defs><style>.cls-1{opacity:0.83;}.cls-2{fill:#38091e;}</style></defs><title>outbound</title><g id="Layer_2" data-name="Layer 2"><g id="FRAME"><g id="Group_77" data-name="Group 77" class="cls-1"><path id="Path_3" data-name="Path 3" class="cls-2" d="M17.37.35a120.81,120.81,0,0,0,0,12.62c.37.57,1,.63,7,.63,5.42,0,6.08,0,6.3-.32a4.44,4.44,0,0,1,5.66,0,3.31,3.31,0,0,0,2.85,0c.26-.24.29-1.08.29-6.43A54.61,54.61,0,0,0,39.23.35C39.05,0,38.71,0,28.3,0S17.55,0,17.37.35ZM35.08,4c-.7.68-8.78,7.54-8.89,7.54s-1.25-1.35-2.65-3c-2.76-3.2-2.72-3.11-1.64-3.95l.57-.44,2,2.29,2,2.3,3.78-3.29L34,2.22l.71.76c.7.71.7.73.37,1.06Z"/><path id="Path_4" data-name="Path 4" class="cls-2" d="M8.78,2.92c-.49.09-.84.5-2.35,2.63L4.65,8.05l-1.19.42c-.87.31-1.25.55-1.36.86-.22.59-.22.59.29.59s.46.07.46.81v.83l-.77,0c-.66.06-.79.13-.88.52a1.33,1.33,0,0,1-.65.73L0,13.14l.11,1.45c.09,1.1.2,1.52.46,1.71.53.38.81.29.81-.28a4.73,4.73,0,0,1,1.71-3,4.31,4.31,0,0,1,3.18-.87,3.88,3.88,0,0,1,2.65,1.27A4.67,4.67,0,0,1,10,18l-.19.59H29.46l-.28-.79A4.91,4.91,0,0,1,29.24,15c.09-.24-.7-.28-6.25-.28H16.63V2.76H13C11,2.79,9.11,2.85,8.78,2.92ZM14.43,6V8.08H12c-2.13,0-2.45,0-2.7.35s-.65.37-1.64.44a3.56,3.56,0,0,1-1.34,0c0-.07.65-1.16,1.43-2.41,1.66-2.63,1.42-2.5,4.6-2.53l2.05,0Z"/><path id="Path_5" data-name="Path 5" class="cls-2" d="M4.41,13.4A3.78,3.78,0,0,0,2.5,15.31,4,4,0,0,0,3.18,19,3.85,3.85,0,0,0,8.4,19a4,4,0,0,0,.68-3.67,3.94,3.94,0,0,0-3.29-2.26A3.85,3.85,0,0,0,4.41,13.4Zm2.53,1.67a1.89,1.89,0,0,1,.61,2.26,2.11,2.11,0,0,1-1.76,1.23,2.11,2.11,0,0,1-1.94-2.28.57.57,0,0,1,0-.13,2,2,0,0,1,2.55-1.34,2.24,2.24,0,0,1,.54.26Z"/><path id="Path_6" data-name="Path 6" class="cls-2" d="M32.34,13.27A3.44,3.44,0,0,0,30,16.63a2.92,2.92,0,0,0,1,2.35A3,3,0,0,0,33.5,20a3.47,3.47,0,1,0-1.16-6.76Zm2.5,2a1.52,1.52,0,0,1,.53,1.31A1.61,1.61,0,0,1,34.73,18c-.59.59-.72.65-1.43.55a1.9,1.9,0,0,1,.2-3.8A1.58,1.58,0,0,1,34.84,15.23Z"/></g></g></g></svg>