<svg xmlns="http://www.w3.org/2000/svg" viewBox="0 0 15.76 8.01"><defs><style>.cls-1{fill:#333233;}</style></defs><title>outboundB</title><g id="Layer_2" data-name="Layer 2"><g id="FRAME"><g id="Group_77" data-name="Group 77"><path id="Path_3" data-name="Path 3" class="cls-1" d="M6.94.14a47.09,47.09,0,0,0,0,5c.14.23.39.25,2.79.25,2.16,0,2.43,0,2.52-.12a1.78,1.78,0,0,1,1.13-.41,1.8,1.8,0,0,1,1.13.41,1.34,1.34,0,0,0,1.14,0c.1-.1.11-.44.11-2.57A20.69,20.69,0,0,0,15.68.14C15.61,0,15.47,0,11.31,0S7,0,6.94.14ZM14,1.62c-.28.27-3.51,3-3.55,3S10,4.09,9.41,3.44C8.31,2.16,8.32,2.2,8.75,1.86L9,1.68l.79.92.78.92L12.07,2.2,13.59.89l.28.3c.28.29.28.29.15.43Z"/><path id="Path_4" data-name="Path 4" class="cls-1" d="M3.51,1.17c-.2,0-.34.2-.94,1.05l-.71,1-.48.17c-.34.12-.5.22-.54.34S.75,4,1,4s.18,0,.18.32v.33l-.31,0c-.26,0-.31.05-.35.21a.57.57,0,0,1-.26.29L0,5.25l0,.58c0,.44.08.61.19.68s.32.12.32-.11a2,2,0,0,1,.68-1.19A1.75,1.75,0,0,1,2.5,4.87a1.49,1.49,0,0,1,1.06.51A1.81,1.81,0,0,1,4,7.18l-.07.24h7.83l-.11-.32a1.91,1.91,0,0,1,0-1.11c0-.1-.28-.11-2.5-.11H6.65V1.1H5.2C4.4,1.12,3.64,1.14,3.51,1.17ZM5.77,2.39v.84h-1c-.85,0-1,0-1.08.14s-.25.15-.65.18a1.63,1.63,0,0,1-.54,0,10.93,10.93,0,0,1,.58-1c.66-1,.56-1,1.83-1h.83Z"/><path id="Path_5" data-name="Path 5" class="cls-1" d="M1.76,5.35A1.54,1.54,0,0,0,1,6.12a1.59,1.59,0,0,0,.27,1.47,1.55,1.55,0,0,0,2.09,0,1.62,1.62,0,0,0,.27-1.47,1.6,1.6,0,0,0-1.32-.91A2.12,2.12,0,0,0,1.76,5.35Zm1,.67A.79.79,0,0,1,3,6.93a.84.84,0,0,1-.71.49.85.85,0,0,1-.77-.91v0a.82.82,0,0,1,1-.54.88.88,0,0,1,.22.1Z"/><path id="Path_6" data-name="Path 6" class="cls-1" d="M12.93,5.3A1.38,1.38,0,0,0,12,6.65a1.16,1.16,0,0,0,.38.94,1.2,1.2,0,0,0,1,.42,1.38,1.38,0,0,0,1.4-1.35,1.41,1.41,0,0,0-.42-1A1.39,1.39,0,0,0,12.93,5.3Zm1,.79a.6.6,0,0,1,.21.52.67.67,0,0,1-.26.57c-.23.23-.29.25-.57.22a.77.77,0,0,1-.71-.82.75.75,0,0,1,.79-.7A.63.63,0,0,1,13.93,6.09Z"/></g></g></g></svg>