<svg xmlns="http://www.w3.org/2000/svg" viewBox="0 0 10.56 10.85"><defs><style>.cls-1{fill:#f9f9f9;}</style></defs><title>Asset 26</title><g id="Layer_2" data-name="Layer 2"><g id="FRAME"><path class="cls-1" d="M5.28,9.05A3.49,3.49,0,1,1,8.77,5.56,3.49,3.49,0,0,1,5.28,9.05Zm0-6.93A3.45,3.45,0,1,0,8.72,5.56,3.45,3.45,0,0,0,5.28,2.12Z"/><path class="cls-1" d="M5.28,10a4.4,4.4,0,1,1,4.4-4.4A4.41,4.41,0,0,1,5.28,10Zm0-8.75A4.36,4.36,0,1,0,9.63,5.56,4.35,4.35,0,0,0,5.28,1.21Z"/><path class="cls-1" d="M5.28,10.85a5.28,5.28,0,1,1,5.28-5.28A5.29,5.29,0,0,1,5.28,10.85ZM5.28.33a5.24,5.24,0,1,0,5.23,5.24A5.25,5.25,0,0,0,5.28.33Z"/><path class="cls-1" d="M5.58,5.56a.3.3,0,1,1-.3-.3A.3.3,0,0,1,5.58,5.56Z"/><path class="cls-1" d="M5.76,5.7a.31.31,0,1,1-.61,0,.31.31,0,0,1,.61,0Z"/><path class="cls-1" d="M5.45,5.8a.3.3,0,1,1-.3-.31A.3.3,0,0,1,5.45,5.8Z"/><path class="cls-1" d="M5.33,5.56a.31.31,0,1,1-.61,0,.31.31,0,0,1,.61,0Z"/><path class="cls-1" d="M5.5,5.42a.3.3,0,1,1-.3-.3A.3.3,0,0,1,5.5,5.42Z"/><path class="cls-1" d="M5.76,5.4a.31.31,0,1,1-.31-.3A.3.3,0,0,1,5.76,5.4Z"/><path class="cls-1" d="M5.53,6a.3.3,0,1,1,.1-.59.29.29,0,0,1,.25.34A.3.3,0,0,1,5.53,6Z"/><path class="cls-1" d="M5.28,2.4a.3.3,0,1,1,.3-.3A.29.29,0,0,1,5.28,2.4Z"/><path class="cls-1" d="M5.28,9.33a.3.3,0,1,1,.3-.3A.29.29,0,0,1,5.28,9.33Z"/><path class="cls-1" d="M5.28,10.24a.3.3,0,0,1-.3-.3.3.3,0,1,1,.6,0A.3.3,0,0,1,5.28,10.24Z"/><path class="cls-1" d="M8.09,9.21a.3.3,0,0,1,0-.6.3.3,0,0,1,0,.6Z"/><path class="cls-1" d="M2.44,9.21a.3.3,0,1,1,.3-.3A.29.29,0,0,1,2.44,9.21Z"/><path class="cls-1" d="M10.12,8a.3.3,0,1,1,.3-.3A.3.3,0,0,1,10.12,8Z"/><path class="cls-1" d="M.44,8a.3.3,0,0,1,0-.6.3.3,0,0,1,0,.6Z"/><path class="cls-1" d="M9.65,5.87A.31.31,0,1,1,10,5.56.31.31,0,0,1,9.65,5.87Z"/><path class="cls-1" d="M8.39,2.84a.3.3,0,1,1,.31-.3A.3.3,0,0,1,8.39,2.84Z"/><path class="cls-1" d="M2.25,2.7a.3.3,0,1,1,.3-.3A.29.29,0,0,1,2.25,2.7Z"/><path class="cls-1" d="M.91,5.87a.31.31,0,0,1-.31-.3.31.31,0,0,1,.61,0A.31.31,0,0,1,.91,5.87Z"/><path class="cls-1" d="M5.28,1.49a.3.3,0,1,1,.3-.3A.29.29,0,0,1,5.28,1.49Z"/><circle class="cls-1" cx="5.28" cy="0.31" r="0.31"/><path class="cls-1" d="M5.36,6.3A.29.29,0,0,1,5.11,6a.3.3,0,0,1,.35-.25.3.3,0,1,1-.1.59Z"/><path class="cls-1" d="M5,6.33a.3.3,0,1,1,.34-.25A.3.3,0,0,1,5,6.33Z"/><path class="cls-1" d="M4.93,6.09a.29.29,0,0,1-.25-.34A.3.3,0,0,1,5,5.5a.3.3,0,1,1-.1.59Z"/><path class="cls-1" d="M5,5.72a.29.29,0,0,1-.25-.34.3.3,0,0,1,.35-.25.3.3,0,1,1-.1.59Z"/><path class="cls-1" d="M5.1,5.65a.3.3,0,1,1,.1-.59.3.3,0,1,1-.1.59Z"/></g></g></svg>