<svg xmlns="http://www.w3.org/2000/svg" viewBox="0 0 32.1 36.51"><defs><style>.cls-1{opacity:0.83;}.cls-2{fill:#063534;}</style></defs><title>reclaimer</title><g id="Layer_2" data-name="Layer 2"><g id="FRAME"><g id="reclaimer2" class="cls-1"><path id="Path_31" data-name="Path 31" class="cls-2" d="M23.94.11a3.72,3.72,0,0,0-2.65,2.6,4.64,4.64,0,0,0,0,1.78,3.75,3.75,0,0,0,2.64,2.68,3.68,3.68,0,0,0,4.16-1.92A3.56,3.56,0,0,0,27.25,1,3.56,3.56,0,0,0,23.94.11Z"/><path id="Path_32" data-name="Path 32" class="cls-2" d="M27,7.42a2.55,2.55,0,0,0-1.83,2.74,5.73,5.73,0,0,0,.32,1.89,6.91,6.91,0,0,0,.75-1.87c.22-.89.3-1,.67-1.36a1.61,1.61,0,0,1,2.19.11A2,2,0,0,1,29.54,10a10.56,10.56,0,0,1-1.12,3.46,8.44,8.44,0,0,1-1.59,2.16l-.61.63v3.24l-.24.68A18,18,0,0,0,25.06,26a20.86,20.86,0,0,0,.3,4.6,23.3,23.3,0,0,0,1.44,5,2,2,0,0,0,2.77.57,1.57,1.57,0,0,0,.25-.2c.76-.7.83-1.33.37-2.77a19.75,19.75,0,0,1-1.1-6.6,15.83,15.83,0,0,1,.31-3.5c.2-1,.27-1.21.37-1.21a3.07,3.07,0,0,0,1.13-.63A4.06,4.06,0,0,0,32,18.34a26.26,26.26,0,0,0-.11-4.69A18.69,18.69,0,0,0,30.6,9.28,4,4,0,0,0,28,7.41,1.91,1.91,0,0,0,27,7.42Z"/><path id="Path_33" data-name="Path 33" class="cls-2" d="M27.29,8.94c-.41.23-.53.45-.76,1.32a6.32,6.32,0,0,1-3.77,4.65,6.34,6.34,0,0,1-2.2.39c-.88,0-1.1.12-1.39.47a1.66,1.66,0,0,0-.34.82,1.67,1.67,0,0,0,.37.85c.35.4.71.49,1.72.44a8.23,8.23,0,0,0,7-4.18,9.25,9.25,0,0,0,1.26-3.64A1.26,1.26,0,0,0,28,8.77,1.19,1.19,0,0,0,27.29,8.94Z"/><path id="Path_34" data-name="Path 34" class="cls-2" d="M4.13,15.26v2.5H1.28V19.9H.64c-.48,0-.65,0-.64.09s.44,1.59,1,3.44l1,3.34L8.36,28c3.52.67,6.41,1.24,6.43,1.26a2.62,2.62,0,0,1-.13.83l0,.16H2.2l0,.69,0,.7,6.9,0c6.52,0,6.9,0,6.94-.1S18.8,19,19,18.24c0-.15.08-.19.23-.19h.19l-.24-.19a1.84,1.84,0,0,1-.57-1l-.06-.27-.62,0-.62,0v.77a7.26,7.26,0,0,1-.2,1.67l-.19.89-.55,0-.55,0V15.2H10.7V12.77H4.13Z"/><path id="Path_35" data-name="Path 35" class="cls-2" d="M4.23,32.31a2,2,0,0,0-1.38,2,2.09,2.09,0,1,0,3.52-1.52A2.14,2.14,0,0,0,4.23,32.31Z"/><path id="Path_36" data-name="Path 36" class="cls-2" d="M13,32.29a2.43,2.43,0,0,0-1.27,1.27,2.22,2.22,0,0,0,0,1.44A2.29,2.29,0,0,0,13,36.27a2.1,2.1,0,0,0,2.56-1.05,1.7,1.7,0,0,0,.19-.94,1.63,1.63,0,0,0-.19-.92A2.18,2.18,0,0,0,13,32.29Z"/></g></g></g></svg>