<svg xmlns="http://www.w3.org/2000/svg" viewBox="0 0 13.86 15.76"><defs><style>.cls-1{fill:#fffbff;}</style></defs><title>reclaimerW</title><g id="Layer_2" data-name="Layer 2"><g id="FRAME"><g id="reclaimer2"><path id="Path_31" data-name="Path 31" class="cls-1" d="M10.34.05A1.61,1.61,0,0,0,9.19,1.17a2.21,2.21,0,0,0,0,.77,1.62,1.62,0,0,0,1.14,1.15,1.58,1.58,0,0,0,1.8-.82A1.53,1.53,0,0,0,11.76.42,1.52,1.52,0,0,0,10.34.05Z"/><path id="Path_32" data-name="Path 32" class="cls-1" d="M11.65,3.2a1.12,1.12,0,0,0-.79,1.19A2.46,2.46,0,0,0,11,5.2a2.63,2.63,0,0,0,.32-.8c.1-.39.13-.45.3-.59a.68.68,0,0,1,.94,0,.84.84,0,0,1,.19.48,4.41,4.41,0,0,1-.48,1.49,3.9,3.9,0,0,1-.68.93L11.32,7v1.4l-.1.3a7.84,7.84,0,0,0-.4,2.5,8.76,8.76,0,0,0,.13,2,9.47,9.47,0,0,0,.62,2.17.87.87,0,0,0,1.2.25l.11-.08c.32-.31.36-.58.15-1.2a8.92,8.92,0,0,1-.47-2.85A7,7,0,0,1,12.69,10c.09-.42.12-.52.17-.52a1.52,1.52,0,0,0,.48-.27,1.81,1.81,0,0,0,.49-1.27,11.34,11.34,0,0,0,0-2A8.27,8.27,0,0,0,13.21,4a1.73,1.73,0,0,0-1.14-.81A1,1,0,0,0,11.65,3.2Z"/><path id="Path_33" data-name="Path 33" class="cls-1" d="M11.78,3.86c-.18.1-.23.19-.32.57a2.77,2.77,0,0,1-1.63,2,2.6,2.6,0,0,1-.95.16c-.38,0-.48.06-.6.21a.73.73,0,0,0-.15.35.73.73,0,0,0,.16.37c.15.17.31.21.74.19a3.53,3.53,0,0,0,3-1.8,4,4,0,0,0,.55-1.58.53.53,0,0,0-.53-.55A.5.5,0,0,0,11.78,3.86Z"/><path id="Path_34" data-name="Path 34" class="cls-1" d="M1.78,6.59V7.67H.55v.92H.27c-.2,0-.27,0-.27,0s.19.69.42,1.49l.42,1.44,2.77.53,2.78.54a1.09,1.09,0,0,1-.06.36l0,.07H1v.6H4a15.57,15.57,0,0,0,3,0c0-.05,1.18-5.44,1.24-5.75,0-.07,0-.09.1-.09h.08l-.1-.08A.78.78,0,0,1,8,7.28l0-.12H7.45v.34a2.82,2.82,0,0,1-.09.71l-.08.39H6.8v-2H4.62v-1H1.78Z"/><path id="Path_35" data-name="Path 35" class="cls-1" d="M1.83,14a.87.87,0,0,0-.6.85A.9.9,0,0,0,3,15.19a.94.94,0,0,0-.2-1A.94.94,0,0,0,1.83,14Z"/><path id="Path_36" data-name="Path 36" class="cls-1" d="M5.59,13.94a1.13,1.13,0,0,0-.55.55.94.94,0,0,0,0,.62,1,1,0,0,0,.56.55.91.91,0,0,0,1.11-.45.74.74,0,0,0,.08-.41.69.69,0,0,0-.08-.4A.94.94,0,0,0,5.59,13.94Z"/></g></g></g></svg>