<svg xmlns="http://www.w3.org/2000/svg" viewBox="0 0 60 91.74"><defs><style>.cls-1{isolation:isolate;}.cls-2{fill:#ce2454;}.cls-3{fill:#ed3763;}.cls-4{fill:#ff9566;}.cls-5{fill:#ffb882;}.cls-6{fill:#7c4431;}.cls-7{fill:#a3a324;}.cls-8{fill:#455b55;}.cls-9{fill:#accc4a;}.cls-10{fill:#96af2e;}.cls-11{fill:#682f1f;}.cls-12{fill:#7a364a;}.cls-13{fill:#5e2638;}.cls-14{fill:#ce2556;}.cls-15{fill:#dbe252;}.cls-16{fill:#c6c639;}.cls-17{opacity:0.7;}.cls-17,.cls-20{mix-blend-mode:multiply;}.cls-18{fill:#9eb7af;}.cls-19{fill:#fff1b8;}.cls-20{fill:#843131;opacity:0.6;}.cls-21{fill:#ea7b59;}.cls-22{fill:#bf2560;}.cls-23{fill:#aa1a4a;}.cls-24{fill:#cde858;}.cls-25{fill:#bc6d88;}.cls-26{fill:#f3ffae;}.cls-27{fill:#4f3131;}</style></defs><title>reclaimerPopup</title><g class="cls-1"><g id="Layer_2" data-name="Layer 2"><g id="FRAME"><path class="cls-2" d="M4.11,37.15A10.6,10.6,0,0,1,9,41.67L8.47,43,3.66,40.21Z"/><path class="cls-3" d="M6.32,33.15c2.58,3.2,12.94,7.93,13.46,8.11s4.22-4.45,3.54-5.42-8.66-9.21-10.27-9.47C11.72,26.15,4.84,31.31,6.32,33.15Z"/><path class="cls-2" d="M11.36,31.06c-1-1.19-.38-3,1.9-4.63l-.21-.06c-1.33-.22-8.46,5.15-7,7,2.58,3.2,13.19,7.72,13.71,7.9.23.07,1.08-.79,1.9-1.85C18.79,38.07,13.47,33.67,11.36,31.06Z"/><path class="cls-4" d="M34,45.62c.39-.73,1.63-.5,1.83-.44s1.64.72,1.75.6a1.16,1.16,0,0,0,.11-.85,16.42,16.42,0,0,0-1.56-1l-1.72-.4S32.46,45.64,34,45.62Z"/><path class="cls-4" d="M33.44,47.29c-.47-.68.25-1.75.39-1.92s1.32-1.24,1.26-1.39-.54-.51-.69-.46a16.54,16.54,0,0,0-1.54,1c-.08.09-1.07,1.45-1.07,1.45S32.82,48.74,33.44,47.29Z"/><path class="cls-5" d="M33.14,46.92c.94-.69,2.1-1.5,2.33-1.63a12.88,12.88,0,0,0,2.07-1c0-.2-.2-.79-.38-.8a17.35,17.35,0,0,0-2,.73l-2.05,1S32.56,47.33,33.14,46.92Z"/><path class="cls-5" d="M29.27,41.27l3,2.92a10.08,10.08,0,0,1,2.56.91c.27.35-.05,1.67-.41,1.53-.83-.33-2.43,1.07-2.76,1.72-.47.93-1.85.18-1.89-.32-.15-1.52-1-2.24-1.87-3.23C27.36,44.17,29.27,41.27,29.27,41.27Z"/><path class="cls-5" d="M29.64,46.69c.11,1.4.18,2.52.16,2.72s-.31,1.3-.19,1.39a1.51,1.51,0,0,0,.74.23A7.87,7.87,0,0,0,31,49.81a14.29,14.29,0,0,1,1-2.09S29.56,45.63,29.64,46.69Z"/><path class="cls-5" d="M19.68,40.91c.92.5,8.49,4.27,8.69,4.43s2.46-2.33,2.31-2.68-6.94-6.36-7.13-6.41C22.8,36.06,18.71,40.39,19.68,40.91Z"/><path class="cls-4" d="M21.94,38.73c-.44-.28.31-1.38,1.3-2.41-1.2.56-4.43,4.12-3.56,4.59s9.08,4.75,9.28,4.91S32.22,45.35,21.94,38.73Z"/><path class="cls-4" d="M21.26,32.16c0,.74,2,1,2.15,1.16s-.05,1.24.22,1.53,1,.22,1.11,0a7,7,0,0,0,0-2.05c-.14-.39-.87-1.06-.78-1.85C24.13,29.56,21.2,30,21.26,32.16Z"/><path class="cls-6" d="M10.17,8.41c.8-.49,1.25-2,.64-3.78,0,0-.37,2-1.57,2.57Z"/><path class="cls-7" d="M11.72,48.79c-2.38.84-6.06,1.94-6.21,1.39s4.6-4.06,4.6-4.06Z"/><polygon class="cls-8" points="30.91 47.1 28.89 48.05 46.48 88.6 54.1 85.02 30.91 47.1"/><polygon class="cls-8" points="30.54 51.11 31.56 50.72 24.81 33.64 23.73 34.18 30.54 51.11"/><path class="cls-9" d="M47.18,87.21l12.28-5.73-13-39.42c-1.39-3-17.39,5.53-15.68,8.54Z"/><path class="cls-10" d="M47,43.61c-5.83,2.91-14,6-14.66,4,0,0,0,0,0,0-1.27,1.18-2,2.27-1.52,3L47.18,87.21l1.6-.92L35.3,54.17l12.16-9.1Z"/><path class="cls-6" d="M5.93,19.3c-2.2-4.28-4.73-5-4.39-6.54,0,0-2.52-2.17-.85-3.94S3.23,7.08,3.23,7.08s-.59-2.25,2.09-3c0,0-.64-4.56,2.23-4,1.14.21.69,2.07.69,2.07S8.78.8,9.88,2.36s-.43,6.41-.43,6.41Z"/><path class="cls-11" d="M7.6,10.18c-1.9,0-3.5-2.11-4-5a2.51,2.51,0,0,0-.36,1.9s-1,.07-2.54,1.74.85,3.94.85,3.94C1.2,14.34,3.73,15,5.93,19.3L9.14,9.7A2.8,2.8,0,0,1,7.6,10.18Z"/><polygon class="cls-12" points="27.68 90.8 28.18 90.49 24.46 70.61 19.48 46.59 9.42 49.58 20.66 71.95 27.68 90.8"/><polygon class="cls-13" points="22.29 71.23 18.36 61.97 18.24 57.06 12.7 48.61 8.89 49.54 20.31 71.98 27.68 90.8 28.08 90.55 22.29 71.23"/><polygon class="cls-12" points="1.01 88.44 12.89 71.92 20.32 52.66 19.48 46.59 8.74 49.58 10.05 68 0.62 88.13 1.01 88.44"/><polygon class="cls-13" points="11.12 52.32 19.73 47.65 19.48 45.86 11.12 48.7 11.12 52.32"/><polygon class="cls-13" points="1.01 88.44 1.07 88.36 11.29 67.77 11.85 48.72 8.56 49.39 9.59 67.97 0.62 88.13 1.01 88.44"/><path class="cls-3" d="M6.25,41.75C6.8,44,7.18,48.26,7.77,48s.34,1.93.81,2,10.69-2.37,11.07-3.21S16.47,31.64,16.1,30.28c-.55-2-3.55-10.29-9.89-7.57S6.25,41.75,6.25,41.75Z"/><path class="cls-14" d="M15.54,47.19S14.3,26.1,6.59,22.57l-.38.14c-6.34,2.73,0,19,0,19C6.8,44,7.18,48.26,7.77,48s.34,1.93.81,2,10.69-2.37,11.07-3.21a1.91,1.91,0,0,0,0-.66Z"/><path class="cls-5" d="M5.87,22.22,5,15.59l6.34.92,1.9,8.22A12.41,12.41,0,0,0,5.87,22.22Z"/><path class="cls-15" d="M5.51,50.18a41.85,41.85,0,0,1,10.7-4.06S16,24.91,8.49,22c-1.71-.66-4.5.79-5.89,3C2,26,1.3,36.71,2.47,37.58,4.24,38.9,4.46,46.55,5.51,50.18Z"/><path class="cls-16" d="M10.62,47.84a42.76,42.76,0,0,0,.91-9.29c0-8.07,0-12.86-2.62-14.68-1.54.27-5.29-.48-6.31,1.11C2,26,1.3,36.71,2.47,37.58c1.77,1.32,2,9,3,12.6A34,34,0,0,1,10.62,47.84Z"/><g class="cls-17"><path class="cls-8" d="M16,41.25a93.26,93.26,0,0,0-11.49,3l.21,1.45A60.19,60.19,0,0,1,16.08,43C16.05,42.46,16,41.88,16,41.25Z"/><path class="cls-8" d="M15.67,38.53A92.68,92.68,0,0,0,4,41.63c.09.46.17.94.25,1.43a59.7,59.7,0,0,1,11.59-2.8C15.8,39.7,15.74,39.13,15.67,38.53Z"/></g><path class="cls-3" d="M10.46,43.45c-3.45-.7-8.37-12.21-7.86-17s5.38-4.68,7-2,1.84,10.36,4,11.35C14.78,36.33,13.37,44,10.46,43.45Z"/><path class="cls-14" d="M13.28,39.37C11.24,40.1,8,36.71,6,31.78,4.51,28.24,4.11,24.88,4.76,23a4.08,4.08,0,0,0-2.16,3.5c-.51,4.75,4.41,16.26,7.86,17,1.71.35,2.89-2.16,3.36-4.4A1.64,1.64,0,0,1,13.28,39.37Z"/><path class="cls-5" d="M11.11,43c-.75,0,.44-7.47,1.38-7.82s8.8-5.4,9.38-5.51,1.84,2.54,1,3.41C20.85,35.37,16.71,42.87,11.11,43Z"/><path class="cls-4" d="M13.39,40.3c-.36.06-.14-3.68,0-5.6-.36.25-.55.33-1,.59-.94.84-2.18,8.21-1.46,8.19,5.6-.17,9.87-8.17,12-10.36.55-.57.61-1.74.1-1.72C21.47,34.12,18.07,39.56,13.39,40.3Z"/><path class="cls-9" d="M32.66,51s18.78-8.15,18.58-9.22S36.7,47.55,36.7,47.55Z"/><polygon class="cls-8" points="59.32 80.17 46.31 86.2 46.98 88.86 59.91 82 60 81.35 59.32 80.17"/><path class="cls-8" d="M45.37,89.72a1.93,1.93,0,1,0,1.93-2A2,2,0,0,0,45.37,89.72Z"/><path class="cls-18" d="M23,34.27a1.4,1.4,0,1,0,2.79,0,1.4,1.4,0,1,0-2.79,0Z"/><path class="cls-18" d="M46.13,89.72a1.17,1.17,0,1,0,1.17-1.21A1.2,1.2,0,0,0,46.13,89.72Z"/><path class="cls-19" d="M30.88,91.74H28s-1.12-1.3-.26-1.86,1.88.83,1.88.83l3.23-1.25Z"/><path class="cls-19" d="M0,87.84,1,90l2.26.77-1.4-1.49s.19-1.86-.39-2.21S0,87.84,0,87.84Z"/><path class="cls-20" d="M8.93,22.76c.9.67,4.22,5.06,6,4.5a14.1,14.1,0,0,0-1.75-2.72l-1.86-8L5,15.59l.89,6.63h0l-.45.21A4.2,4.2,0,0,1,8.93,22.76Z"/><path class="cls-5" d="M14,19.88c-.29.69-5.77.09-6.67-.39-.4-.22-3.68-8.11-3.6-9.44S7.57,5.51,8.89,6.13C11,7.11,14.27,19.19,14,19.88Z"/><path class="cls-11" d="M2.8,10.1c1.82-1.94,2.86-1.12,5,6.84l-1.54-.09L4,14Z"/><path class="cls-5" d="M6.19,17.15c-1.56.38-3.52,0-3.44-1.48a1.46,1.46,0,0,1,2.52-.85A4.47,4.47,0,0,1,6.19,17.15Z"/><path class="cls-21" d="M5.46,16.61c-.91.22-2.06,0-2-.87a.85.85,0,0,1,1.47-.5A2.69,2.69,0,0,1,5.46,16.61Z"/><path class="cls-5" d="M5.62,16.68c-.59.15-1.34,0-1.31-.56a.56.56,0,0,1,1-.32A1.78,1.78,0,0,1,5.62,16.68Z"/><path class="cls-22" d="M13,34.88c-.4.72-.77,5.78-.83,8.44,0,.94-3,1.07-3.15-.61s.64-6.05,3.58-8C13,34.44,13,34.88,13,34.88Z"/><path class="cls-23" d="M10.82,38.67a1.25,1.25,0,0,1-.67-1,10.67,10.67,0,0,0-1.1,5c.17,1.68,3.13,1.55,3.15.61,0-1.53.17-3.85.36-5.68C12,38.43,11.33,38.85,10.82,38.67Z"/><polygon class="cls-24" points="44.99 47.45 47.64 45.84 57.52 75.6 44.99 47.45"/><path class="cls-24" d="M45.66,41.87c-.52-.37-2.16-.2-3.66.37s-2.3,1.33-1.78,1.7,2.16.2,3.66-.37S46.18,42.24,45.66,41.87Z"/><path class="cls-24" d="M39.58,44.47a3.29,3.29,0,0,0-2.24.23c-.92.35-1.41.81-1.09,1a3.29,3.29,0,0,0,2.24-.23C39.41,45.16,39.9,44.7,39.58,44.47Z"/><polygon class="cls-13" points="18.35 48.11 19.13 50.44 20.2 50.06 19.68 47.34 18.35 48.11"/><polygon class="cls-25" points="18.81 48.17 19.27 49.54 19.9 49.32 19.6 47.71 18.81 48.17"/><path class="cls-26" d="M44.41,64.89A2.44,2.44,0,0,1,46,63.36v-1.9a4.3,4.3,0,0,0-3.42,3.43Z"/><path class="cls-26" d="M47.36,63.35A2.51,2.51,0,0,1,49,64.89h1.84a4.28,4.28,0,0,0-3.43-3.43Z"/><path class="cls-26" d="M49,66.32a2.5,2.5,0,0,1-1.68,1.88v1.89a4.3,4.3,0,0,0,3.48-3.77Z"/><path class="cls-26" d="M46,68.19a2.49,2.49,0,0,1-1.67-1.87h-1.8A4.28,4.28,0,0,0,46,70.08Z"/><polygon class="cls-26" points="45.68 70.55 46.91 68.99 45.68 67.44 45.68 70.55"/><polygon class="cls-26" points="47.53 60.98 46.3 62.54 47.53 64.09 47.53 60.98"/><polygon class="cls-26" points="41.97 64.57 43.47 65.86 44.96 64.57 41.97 64.57"/><polygon class="cls-26" points="51.45 66.5 49.95 65.22 48.46 66.5 51.45 66.5"/><path class="cls-4" d="M23.72,31.67a3.85,3.85,0,0,1,1.12.81c.31.37-.55,1.39-.47,1.69s.8.71,1.09.47a7.09,7.09,0,0,0,.84-2.27,3.37,3.37,0,0,0-1.56-1.72C24,30.33,22.69,31.08,23.72,31.67Z"/><path class="cls-5" d="M18.46,31.93S20,30.76,21,30.12c.67-.44,2.68-1.2,4-.7,2.25.86,2,3.57,1.2,2.75-2.56-2.81-2.31-.61-3.76,1-.41.45-2.75,2.1-2.75,2.1Z"/><path class="cls-5" d="M24.24,30.75a9.08,9.08,0,0,1,1.67,1.19c.51.49-.34,1.87-.14,2.25s.94.6,1.2.33a8.91,8.91,0,0,0,.44-3.08,4.88,4.88,0,0,0-2.3-2.05C23.26,28.69,22.8,29.8,24.24,30.75Z"/><path class="cls-5" d="M23.51,31.78a6,6,0,0,1,1,.79c.31.36-.63,1.35-.56,1.66s.77.75,1.06.53a7.21,7.21,0,0,0,1-2.21,3.38,3.38,0,0,0-1.46-1.81C23.71,30.38,23,31.39,23.51,31.78Z"/><path class="cls-27" d="M11.55,11.2c-.14-.44-.45-.72-.68-.63s-.31.52-.17,1,.45.72.68.63S11.69,11.64,11.55,11.2Z"/><path class="cls-5" d="M9.83,11.1c.22-.3,2.85,3.42,2.94,4,0,.27-1.66.38-1.66.38S9.78,11.15,9.83,11.1Z"/><path class="cls-21" d="M10,11.18A21.4,21.4,0,0,1,12.67,15c0,.2-1,.32-1.45.35a1.1,1.1,0,0,1,0,.15s1.84,0,1.79-.31A17,17,0,0,0,10,11.18Z"/><path class="cls-27" d="M8.79,11.73c-.14-.44-.45-.72-.68-.63s-.31.51-.17,1,.45.72.68.64S8.93,12.17,8.79,11.73Z"/><path class="cls-6" d="M8.46,9.93a3,3,0,0,1-2.37.71c-.19-.22-.31-.46,0-.71s2-1.07,2.28-.93S8.62,9.67,8.46,9.93Z"/><path class="cls-6" d="M9.64,9.52c.4.35,1.69-.26,1.74-.56s0-.58-.26-.63-1.63,0-1.76.31S9.45,9.36,9.64,9.52Z"/><path class="cls-21" d="M10.66,16.83c-.44-.07-.81-1.06-1-1.48H9.5s.47,1.56,1,1.64a4.27,4.27,0,0,0,2.38-.39l.06-.09A5.35,5.35,0,0,1,10.66,16.83Z"/><path class="cls-21" d="M12.12,17.36c0-.09-.21-.12-.43-.07s-.38.15-.36.24.21.12.43.07S12.14,17.44,12.12,17.36Z"/></g></g></g></svg>