<svg xmlns="http://www.w3.org/2000/svg" viewBox="0 0 89.87 87.06"><defs><style>.cls-1{fill:#41710d;}.cls-2{fill:#91ab00;}.cls-3{fill:#5c8207;}.cls-4{fill:#7da51d;}.cls-5{fill:#76a312;}.cls-6{fill:#9bc62d;}</style></defs><title>recyclewhitebox</title><g id="Layer_2" data-name="Layer 2"><g id="FRAME"><path class="cls-1" d="M52.38,17.12c2.89-1.28,6.68-2.49,10-2A23.48,23.48,0,0,1,76,21.88L82.07,11.6,75.3,15.24l-.43-.69A14.84,14.84,0,0,1,67,15h0a13.52,13.52,0,0,1,4-6.69l-.71-1.15a22.69,22.69,0,0,1-11.49,6.5h0A20.55,20.55,0,0,1,60.36.12,12.32,12.32,0,0,0,58.64,0H52.8L47.25,8.89Z"/><path class="cls-1" d="M60.22,27.22a13.83,13.83,0,0,1-4.53-1.47L51,28.29H72.16L74.71,24A23,23,0,0,1,60.22,27.22Z"/><path class="cls-2" d="M36.26,12.76h0a23.27,23.27,0,0,1-17.07,1,7.69,7.69,0,0,1-.72-.28l-1.09,1.74,12.38,6.63a8.77,8.77,0,0,1,.37-1.05c1.47-3.67,6.91-6.2,6.91-6.2a19.94,19.94,0,0,1,1.21,5.78L45.42,8.89,51,0H46.72a21.73,21.73,0,0,1-9,10.38h0A20.93,20.93,0,0,1,34.51,0H34a12.89,12.89,0,0,0-8.39,3.07A21.91,21.91,0,0,1,36.26,12.76Z"/><path class="cls-1" d="M62.59,68a32.09,32.09,0,0,1,4.19-8H56.1a21.06,21.06,0,0,1-7,6.68h0a18.66,18.66,0,0,1-1.66-3.17l-2.37,3.81a18,18,0,0,1,3,4.25h0a19,19,0,0,1-3.57,1.32l8.54,14.25,0-1.19A19.66,19.66,0,0,1,50,76.38c-.32-6.12,5.78-13,5.78-13s7,6.79,7.1,12.92a22.69,22.69,0,0,1-.17,3.36h2a13,13,0,0,0,7.17-2.14,14.08,14.08,0,0,1-6.23-3.78h0A14.65,14.65,0,0,1,76,70.36a7.17,7.17,0,0,1,1.5.27l1-1.6-1.3-2.28C71.7,69.82,62.59,68,62.59,68Z"/><path class="cls-2" d="M81,50h0a13.55,13.55,0,0,1,6.39-8.47l.55-.28-2-3.58a14.46,14.46,0,0,1-3.67,5.73A23.87,23.87,0,0,1,68.9,49.24l3.46,6.07a23.57,23.57,0,0,1,15-1.88h0a17.7,17.7,0,0,1-1.42,4l2.22-3.56a11.68,11.68,0,0,0,1.68-4.69A15,15,0,0,1,81,50Z"/><path class="cls-2" d="M64.92,42.26l2.38,4.17a21.36,21.36,0,0,1,2.13-6.64Z"/><path class="cls-2" d="M78.45,66l1,1.73,3.84-6.14A20.81,20.81,0,0,1,78.45,66Z"/><path class="cls-1" d="M13.76,59.44h1.8l4-6.94C15.09,49.45,12.11,44,12.11,44s9.25-3.52,15.25-1.3c.68.26,1.33.54,2,.83l-5.8-9.38a14.31,14.31,0,0,1-6.69,4.55h0a13,13,0,0,1,.4-9.43l-7.08.12a20.53,20.53,0,0,1,3.69,12.55h0A23.34,23.34,0,0,1,3.73,39L1.55,42.76A11.51,11.51,0,0,0,.22,46.31a14.24,14.24,0,0,1,6.55-1c4.11.37,8.12,4.69,8.12,4.69s-5.16,3.57-9.25,3.09A15.4,15.4,0,0,1,.42,51.58a11.09,11.09,0,0,0,.91,2.31c3.3.39,7.82,1.36,10.58,3.76A24.38,24.38,0,0,1,13.76,59.44Z"/><path class="cls-2" d="M20.65,62.44A37.61,37.61,0,0,1,27,60.79l-10.51,0H14.88A20.37,20.37,0,0,1,19.4,71.49h0a22.76,22.76,0,0,1-7.47-.57l2.29,3.7a12.24,12.24,0,0,0,5,4.54,28.15,28.15,0,0,1,5.28-9.21s5.32,5.19,6.75,10.6l5.17,0-.14-7A21.94,21.94,0,0,1,31,72.52C25,70.45,20.65,62.44,20.65,62.44Z"/><path class="cls-2" d="M36.05,61.21v-.38H34.82a9.65,9.65,0,0,1,1.08.33Z"/><path class="cls-3" d="M81,50l8.56-5a11.6,11.6,0,0,0-1.19-3l-.43-.75-.55.28A13.55,13.55,0,0,0,81,50Z"/><path class="cls-4" d="M89.54,45,81,50h0a15,15,0,0,0,8.81-.85A11.49,11.49,0,0,0,89.54,45Z"/><polygon class="cls-4" points="80.97 50.02 80.97 50.02 89.54 45.01 89.54 45.01 80.97 50.02"/><path class="cls-3" d="M67,15l6-3.49-2-3.2A13.52,13.52,0,0,0,67,15Z"/><path class="cls-4" d="M67,15h0a14.84,14.84,0,0,0,7.85-.49l-1.88-3Z"/><polygon class="cls-4" points="72.99 11.54 72.99 11.54 67.03 15.03 67.03 15.03 72.99 11.54"/><path class="cls-3" d="M65.67,73.75l9.51.59.36-.52,2-3.19a7.17,7.17,0,0,0-1.5-.27A14.65,14.65,0,0,0,65.67,73.75Z"/><path class="cls-4" d="M75.18,74.34l-9.51-.59h0a14.08,14.08,0,0,0,6.23,3.78A12.32,12.32,0,0,0,75.18,74.34Z"/><polygon class="cls-4" points="75.18 74.34 75.18 74.34 65.67 73.75 65.67 73.75 75.18 74.34"/><path class="cls-3" d="M83.6,33.69l-.71-1.25L69.43,39.79a21.36,21.36,0,0,0-2.13,6.64l1,1.75Z"/><path class="cls-4" d="M85.88,37.69l-2.28-4L68.3,48.18l.6,1.06a23.87,23.87,0,0,0,13.31-5.82A14.46,14.46,0,0,0,85.88,37.69Z"/><polygon class="cls-4" points="68.3 48.18 68.3 48.18 83.6 33.69 83.6 33.69 68.3 48.18"/><path class="cls-3" d="M51.74,56.6l-4.28,6.83a18.66,18.66,0,0,0,1.66,3.17Z"/><path class="cls-4" d="M54,53.06l-2.21,3.53-2.62,10h0a21.06,21.06,0,0,0,7-6.68H53.77Z"/><polygon class="cls-4" points="51.74 56.59 51.74 56.6 49.12 66.6 49.12 66.6 51.74 56.59"/><path class="cls-3" d="M40.48,0h-6a20.93,20.93,0,0,0,3.25,10.37Z"/><path class="cls-4" d="M37.77,10.37h0A21.73,21.73,0,0,0,46.72,0H40.48Z"/><polygon class="cls-4" points="40.48 0 40.48 0 37.76 10.37 37.77 10.37 40.48 0"/><path class="cls-3" d="M12.11,44s3,5.5,7.45,8.56l3-5.13Z"/><path class="cls-4" d="M12.11,44l10.41,3.43L25,43.11l6.24,3.44-1.9-3.07c-.63-.29-1.28-.57-2-.83C21.36,40.43,12.11,44,12.11,44Z"/><polygon class="cls-4" points="22.52 47.38 12.11 43.95 22.52 47.38 22.52 47.38"/><path class="cls-3" d="M36.25,12.75,21.88,8,18.46,13.5a7.69,7.69,0,0,0,.72.28A23.27,23.27,0,0,0,36.25,12.75Z"/><path class="cls-4" d="M23.22,5.86,21.88,8l14.37,4.73h0A21.91,21.91,0,0,0,25.64,3.07,12,12,0,0,0,23.22,5.86Z"/><polygon class="cls-4" points="36.25 12.75 21.88 8.02 21.88 8.02 36.25 12.75 36.25 12.75"/><path class="cls-3" d="M37,14.62s-5.44,2.53-6.91,6.2a8.77,8.77,0,0,0-.37,1.05l3.69,2Z"/><path class="cls-4" d="M33.44,23.86l2,1.06,2.82-4.52A19.94,19.94,0,0,0,37,14.62Z"/><polygon class="cls-4" points="33.45 23.86 37.03 14.62 33.45 23.86 33.45 23.86"/><path class="cls-3" d="M43.4,69.94l-.3.47,1.44,2.4a19,19,0,0,0,3.57-1.32Z"/><path class="cls-3" d="M20.65,62.44S25,70.45,31,72.52a21.94,21.94,0,0,0,5.26,1.09l-.12-6Z"/><path class="cls-4" d="M48.11,71.49h0a18,18,0,0,0-3-4.25l-1.69,2.7Z"/><path class="cls-4" d="M36.18,67.56l-.13-6.35-.15-.06a9.65,9.65,0,0,0-1.08-.33l-7.84,0a37.61,37.61,0,0,0-6.33,1.65Z"/><polygon class="cls-4" points="43.4 69.94 43.4 69.94 48.11 71.49 48.11 71.49 43.4 69.94"/><polygon class="cls-4" points="20.65 62.44 36.18 67.56 36.18 67.56 20.65 62.44"/><path class="cls-3" d="M56.86,79.66l-1-16.28s-6.1,6.88-5.78,13a19.66,19.66,0,0,0,3.07,9.49l.16-6.22Z"/><path class="cls-4" d="M62.92,76.3c-.14-6.13-7.1-12.92-7.1-12.92l1,16.28h5.89A22.69,22.69,0,0,0,62.92,76.3Z"/><polygon class="cls-4" points="56.86 79.66 55.82 63.38 56.86 79.66 56.86 79.66"/><path class="cls-3" d="M25.19,80.51l-.67-10.57a28.15,28.15,0,0,0-5.28,9.21A12.94,12.94,0,0,0,25,80.51Z"/><path class="cls-4" d="M25.19,80.51l6.08,0c-1.43-5.41-6.75-10.6-6.75-10.6Z"/><polygon class="cls-4" points="25.19 80.51 24.52 69.94 25.19 80.51 25.19 80.51"/><polygon class="cls-3" points="0.34 29.49 4.37 31.72 2.26 29.46 0.34 29.49"/><path class="cls-3" d="M6.57,34.07,3.73,39a23.34,23.34,0,0,0,10.11,2.89Z"/><polygon class="cls-4" points="7.06 33.21 4.37 31.72 6.57 34.07 7.06 33.21"/><path class="cls-4" d="M4.37,31.72l2.69,1.49-.49.86,7.27,7.8h0a20.53,20.53,0,0,0-3.69-12.55l-7.9.13Z"/><polygon class="cls-4" points="4.37 31.72 4.37 31.72 6.57 34.07 6.57 34.07 4.37 31.72"/><polygon class="cls-4" points="6.57 34.07 6.57 34.07 13.84 41.87 13.85 41.87 6.57 34.07"/><polygon class="cls-4" points="2.26 29.46 2.26 29.46 4.37 31.72 4.37 31.72 2.26 29.46"/><path class="cls-3" d="M54.33,20.25l2.92,4.67-1.56.83a13.83,13.83,0,0,0,4.53,1.47A23,23,0,0,0,74.71,24l.86-1.45Z"/><path class="cls-4" d="M62.36,15.11c-3.3-.48-7.09.73-10,2l1.95,3.13,21.24,2.29.39-.66A23.48,23.48,0,0,0,62.36,15.11Z"/><polygon class="cls-4" points="75.57 22.54 75.57 22.54 54.34 20.25 54.34 20.25 75.57 22.54"/><path class="cls-3" d="M83.28,61.59a22.42,22.42,0,0,0,2.6-4.16l-.77,1.22Z"/><path class="cls-3" d="M62.59,68s9.11,1.84,14.63-1.23l-3.15-5.53Z"/><path class="cls-3" d="M75.31,60.49,78.45,66a20.81,20.81,0,0,0,4.83-4.41l1.83-2.94.77-1.22a17.7,17.7,0,0,0,1.42-4Z"/><path class="cls-4" d="M74.07,61.22,73.34,60H66.78a32.09,32.09,0,0,0-4.19,8Z"/><path class="cls-4" d="M75.31,60.49l12-7.05h0a23.57,23.57,0,0,0-15,1.88l1.9,3.33Z"/><polygon class="cls-4" points="62.59 67.98 74.07 61.22 74.07 61.22 62.59 67.98"/><polygon class="cls-4" points="75.31 60.49 75.31 60.49 87.3 53.44 87.3 53.44 75.31 60.49"/><path class="cls-5" d="M16.84,38.64l4.43-8.17-.81-1.31-3.22.05A13,13,0,0,0,16.84,38.64Z"/><path class="cls-6" d="M16.84,38.64h0a14.31,14.31,0,0,0,6.69-4.55l-2.25-3.63Z"/><polygon class="cls-6" points="21.27 30.47 21.27 30.47 16.84 38.64 16.84 38.64 21.27 30.47"/><path class="cls-5" d="M19.39,71.48,6,60.71h-.4l5.63,9.11.68,1.09A22.76,22.76,0,0,0,19.39,71.48Z"/><path class="cls-6" d="M4.7,59.41l9.06,0a24.38,24.38,0,0,0-1.85-1.79c-2.76-2.4-7.28-3.37-10.58-3.76a6.37,6.37,0,0,0,.41.72Z"/><path class="cls-6" d="M19.4,71.48h0a20.37,20.37,0,0,0-4.52-10.74L6,60.71Z"/><polygon class="cls-6" points="6.01 60.72 6.01 60.72 19.39 71.48 19.4 71.48 6.01 60.72"/><path class="cls-5" d="M58.8,13.68,66.36,2.53a12.9,12.9,0,0,0-6-2.41A20.55,20.55,0,0,0,58.8,13.68Z"/><path class="cls-6" d="M66.36,2.53,58.8,13.68h0a22.69,22.69,0,0,0,11.49-6.5l-.83-1.33A12.26,12.26,0,0,0,66.36,2.53Z"/><polygon class="cls-6" points="66.36 2.54 66.36 2.54 58.8 13.68 58.8 13.68 66.36 2.54"/><path class="cls-5" d="M0,48.85,14.89,50s-4-4.32-8.12-4.69a14.24,14.24,0,0,0-6.55,1A11.43,11.43,0,0,0,0,48.85Z"/><path class="cls-6" d="M14.89,50,0,48.85a11.5,11.5,0,0,0,.42,2.73,15.4,15.4,0,0,0,5.22,1.55C9.73,53.61,14.89,50,14.89,50Z"/><polygon class="cls-6" points="0 48.85 14.89 50.04 0 48.85 0 48.85"/></g></g></svg>